G04 #@! TF.GenerationSoftware,KiCad,Pcbnew,10.0.6*
G04 #@! TF.CreationDate,2026-09-30T16:45:43+05:30*
G04 #@! TF.ProjectId,sallenkey,73616c6c-656e-46b6-9579-2e6b69636164,rev?*
G04 #@! TF.SameCoordinates,Original*
G04 #@! TF.FileFunction,Soldermask,Bot*
G04 #@! TF.FilePolarity,Negative*
%FSLAX46Y46*%
G04 Gerber Fmt 4.6, Leading zero omitted, Abs format (unit mm)*
G04 Created by KiCad (PCBNEW 10.0.6) date 2026-09-30 16:45:43*
%MOMM*%
%LPD*%
G01*
G04 APERTURE LIST*
G04 Aperture macros list*
%AMRoundRect*
0 Rectangle with rounded corners*
0 $1 Rounding radius*
0 $2 $3 $4 $5 $6 $7 $8 $9 X,Y pos of 4 corners*
0 Add a 4 corners polygon primitive as box body*
4,1,4,$2,$3,$4,$5,$6,$7,$8,$9,$2,$3,0*
0 Add four circle primitives for the rounded corners*
1,1,$1+$1,$2,$3*
1,1,$1+$1,$4,$5*
1,1,$1+$1,$6,$7*
1,1,$1+$1,$8,$9*
0 Add four rect primitives between the rounded corners*
20,1,$1+$1,$2,$3,$4,$5,0*
20,1,$1+$1,$4,$5,$6,$7,0*
20,1,$1+$1,$6,$7,$8,$9,0*
20,1,$1+$1,$8,$9,$2,$3,0*%
G04 Aperture macros list end*
%ADD10C,1.600000*%
%ADD11C,1.700000*%
%ADD12O,1.700000X1.700000*%
%ADD13R,1.700000X1.700000*%
%ADD14RoundRect,0.250000X0.475000X-0.337500X0.475000X0.337500X-0.475000X0.337500X-0.475000X-0.337500X0*%
%ADD15RoundRect,0.250000X0.550000X-1.500000X0.550000X1.500000X-0.550000X1.500000X-0.550000X-1.500000X0*%
%ADD16RoundRect,0.250000X-0.550000X1.500000X-0.550000X-1.500000X0.550000X-1.500000X0.550000X1.500000X0*%
%ADD17RoundRect,0.250000X-1.500000X-0.550000X1.500000X-0.550000X1.500000X0.550000X-1.500000X0.550000X0*%
G04 APERTURE END LIST*
D10*
X126300000Y-79600000D03*
X131300000Y-79600000D03*
X140900000Y-103400000D03*
X145900000Y-103400000D03*
X131200000Y-84500000D03*
X126200000Y-84500000D03*
X141000000Y-84200000D03*
X146000000Y-84200000D03*
X131200000Y-94100000D03*
X126200000Y-94100000D03*
D11*
X115400000Y-84560000D03*
D12*
X115400000Y-87100000D03*
X115400000Y-89640000D03*
D11*
X158600000Y-86520000D03*
X158600000Y-89060000D03*
X158600000Y-91600000D03*
X158600000Y-94140000D03*
X158600000Y-96680000D03*
D10*
X140800000Y-79500000D03*
X145800000Y-79500000D03*
X131200000Y-89200000D03*
X126200000Y-89200000D03*
D13*
X120600000Y-99660000D03*
D12*
X120600000Y-102200000D03*
D10*
X145900000Y-99300000D03*
X140900000Y-99300000D03*
D14*
X145200000Y-94337500D03*
X145200000Y-92262500D03*
D15*
X120700000Y-94800000D03*
X120700000Y-89400000D03*
D16*
X120700000Y-79600000D03*
X120700000Y-85000000D03*
D15*
X140300000Y-94200000D03*
X140300000Y-88800000D03*
D17*
X149700000Y-101900000D03*
X155100000Y-101900000D03*
D16*
X126400000Y-97500000D03*
X126400000Y-102900000D03*
D17*
X149700000Y-87700000D03*
X155100000Y-87700000D03*
X149700000Y-80600000D03*
X155100000Y-80600000D03*
X149700000Y-94800000D03*
X155100000Y-94800000D03*
M02*
