G04 #@! TF.GenerationSoftware,KiCad,Pcbnew,10.0.6*
G04 #@! TF.CreationDate,2026-09-30T16:45:43+05:30*
G04 #@! TF.ProjectId,sallenkey,73616c6c-656e-46b6-9579-2e6b69636164,rev?*
G04 #@! TF.SameCoordinates,Original*
G04 #@! TF.FileFunction,Legend,Top*
G04 #@! TF.FilePolarity,Positive*
%FSLAX46Y46*%
G04 Gerber Fmt 4.6, Leading zero omitted, Abs format (unit mm)*
G04 Created by KiCad (PCBNEW 10.0.6) date 2026-09-30 16:45:43*
%MOMM*%
%LPD*%
G01*
G04 APERTURE LIST*
G04 Aperture macros list*
%AMRoundRect*
0 Rectangle with rounded corners*
0 $1 Rounding radius*
0 $2 $3 $4 $5 $6 $7 $8 $9 X,Y pos of 4 corners*
0 Add a 4 corners polygon primitive as box body*
4,1,4,$2,$3,$4,$5,$6,$7,$8,$9,$2,$3,0*
0 Add four circle primitives for the rounded corners*
1,1,$1+$1,$2,$3*
1,1,$1+$1,$4,$5*
1,1,$1+$1,$6,$7*
1,1,$1+$1,$8,$9*
0 Add four rect primitives between the rounded corners*
20,1,$1+$1,$2,$3,$4,$5,0*
20,1,$1+$1,$4,$5,$6,$7,0*
20,1,$1+$1,$6,$7,$8,$9,0*
20,1,$1+$1,$8,$9,$2,$3,0*%
G04 Aperture macros list end*
%ADD10C,0.150000*%
%ADD11C,0.120000*%
%ADD12C,0.100000*%
%ADD13C,1.600000*%
%ADD14RoundRect,0.250000X-0.450000X0.350000X-0.450000X-0.350000X0.450000X-0.350000X0.450000X0.350000X0*%
%ADD15RoundRect,0.250000X-0.350000X-0.450000X0.350000X-0.450000X0.350000X0.450000X-0.350000X0.450000X0*%
%ADD16RoundRect,0.250000X-0.475000X0.337500X-0.475000X-0.337500X0.475000X-0.337500X0.475000X0.337500X0*%
%ADD17RoundRect,0.150000X-0.825000X-0.150000X0.825000X-0.150000X0.825000X0.150000X-0.825000X0.150000X0*%
%ADD18RoundRect,0.250000X0.350000X0.450000X-0.350000X0.450000X-0.350000X-0.450000X0.350000X-0.450000X0*%
%ADD19RoundRect,0.250000X0.625000X-0.400000X0.625000X0.400000X-0.625000X0.400000X-0.625000X-0.400000X0*%
%ADD20C,1.700000*%
%ADD21O,1.700000X1.700000*%
%ADD22RoundRect,0.250000X-0.625000X0.400000X-0.625000X-0.400000X0.625000X-0.400000X0.625000X0.400000X0*%
%ADD23RoundRect,0.150000X0.150000X-0.825000X0.150000X0.825000X-0.150000X0.825000X-0.150000X-0.825000X0*%
%ADD24RoundRect,0.250000X0.337500X0.475000X-0.337500X0.475000X-0.337500X-0.475000X0.337500X-0.475000X0*%
%ADD25R,1.700000X1.700000*%
G04 APERTURE END LIST*
D10*
X115612969Y-82769819D02*
X115136779Y-82769819D01*
X115136779Y-82769819D02*
X115136779Y-81769819D01*
X156212969Y-89469819D02*
X155736779Y-89469819D01*
X155736779Y-89469819D02*
X155736779Y-88469819D01*
X157022493Y-89469819D02*
X156546303Y-89469819D01*
X156546303Y-89469819D02*
X156546303Y-88469819D01*
X156108207Y-94569819D02*
X155774874Y-94093628D01*
X155536779Y-94569819D02*
X155536779Y-93569819D01*
X155536779Y-93569819D02*
X155917731Y-93569819D01*
X155917731Y-93569819D02*
X156012969Y-93617438D01*
X156012969Y-93617438D02*
X156060588Y-93665057D01*
X156060588Y-93665057D02*
X156108207Y-93760295D01*
X156108207Y-93760295D02*
X156108207Y-93903152D01*
X156108207Y-93903152D02*
X156060588Y-93998390D01*
X156060588Y-93998390D02*
X156012969Y-94046009D01*
X156012969Y-94046009D02*
X155917731Y-94093628D01*
X155917731Y-94093628D02*
X155536779Y-94093628D01*
X157012969Y-94569819D02*
X156536779Y-94569819D01*
X156536779Y-94569819D02*
X156536779Y-93569819D01*
X155908207Y-97169819D02*
X155574874Y-96693628D01*
X155336779Y-97169819D02*
X155336779Y-96169819D01*
X155336779Y-96169819D02*
X155717731Y-96169819D01*
X155717731Y-96169819D02*
X155812969Y-96217438D01*
X155812969Y-96217438D02*
X155860588Y-96265057D01*
X155860588Y-96265057D02*
X155908207Y-96360295D01*
X155908207Y-96360295D02*
X155908207Y-96503152D01*
X155908207Y-96503152D02*
X155860588Y-96598390D01*
X155860588Y-96598390D02*
X155812969Y-96646009D01*
X155812969Y-96646009D02*
X155717731Y-96693628D01*
X155717731Y-96693628D02*
X155336779Y-96693628D01*
X156336779Y-97169819D02*
X156336779Y-96169819D01*
X156336779Y-96646009D02*
X156908207Y-96646009D01*
X156908207Y-97169819D02*
X156908207Y-96169819D01*
X156012969Y-86969819D02*
X155536779Y-86969819D01*
X155536779Y-86969819D02*
X155536779Y-85969819D01*
X156346303Y-86969819D02*
X156346303Y-85969819D01*
X156346303Y-86446009D02*
X156917731Y-86446009D01*
X156917731Y-86969819D02*
X156917731Y-85969819D01*
X120336779Y-97988866D02*
X121098684Y-97988866D01*
X120717731Y-98369819D02*
X120717731Y-97607914D01*
X156760588Y-91017438D02*
X156665350Y-90969819D01*
X156665350Y-90969819D02*
X156522493Y-90969819D01*
X156522493Y-90969819D02*
X156379636Y-91017438D01*
X156379636Y-91017438D02*
X156284398Y-91112676D01*
X156284398Y-91112676D02*
X156236779Y-91207914D01*
X156236779Y-91207914D02*
X156189160Y-91398390D01*
X156189160Y-91398390D02*
X156189160Y-91541247D01*
X156189160Y-91541247D02*
X156236779Y-91731723D01*
X156236779Y-91731723D02*
X156284398Y-91826961D01*
X156284398Y-91826961D02*
X156379636Y-91922200D01*
X156379636Y-91922200D02*
X156522493Y-91969819D01*
X156522493Y-91969819D02*
X156617731Y-91969819D01*
X156617731Y-91969819D02*
X156760588Y-91922200D01*
X156760588Y-91922200D02*
X156808207Y-91874580D01*
X156808207Y-91874580D02*
X156808207Y-91541247D01*
X156808207Y-91541247D02*
X156617731Y-91541247D01*
X117460588Y-86617438D02*
X117365350Y-86569819D01*
X117365350Y-86569819D02*
X117222493Y-86569819D01*
X117222493Y-86569819D02*
X117079636Y-86617438D01*
X117079636Y-86617438D02*
X116984398Y-86712676D01*
X116984398Y-86712676D02*
X116936779Y-86807914D01*
X116936779Y-86807914D02*
X116889160Y-86998390D01*
X116889160Y-86998390D02*
X116889160Y-87141247D01*
X116889160Y-87141247D02*
X116936779Y-87331723D01*
X116936779Y-87331723D02*
X116984398Y-87426961D01*
X116984398Y-87426961D02*
X117079636Y-87522200D01*
X117079636Y-87522200D02*
X117222493Y-87569819D01*
X117222493Y-87569819D02*
X117317731Y-87569819D01*
X117317731Y-87569819D02*
X117460588Y-87522200D01*
X117460588Y-87522200D02*
X117508207Y-87474580D01*
X117508207Y-87474580D02*
X117508207Y-87141247D01*
X117508207Y-87141247D02*
X117317731Y-87141247D01*
X115808207Y-92269819D02*
X115474874Y-91793628D01*
X115236779Y-92269819D02*
X115236779Y-91269819D01*
X115236779Y-91269819D02*
X115617731Y-91269819D01*
X115617731Y-91269819D02*
X115712969Y-91317438D01*
X115712969Y-91317438D02*
X115760588Y-91365057D01*
X115760588Y-91365057D02*
X115808207Y-91460295D01*
X115808207Y-91460295D02*
X115808207Y-91603152D01*
X115808207Y-91603152D02*
X115760588Y-91698390D01*
X115760588Y-91698390D02*
X115712969Y-91746009D01*
X115712969Y-91746009D02*
X115617731Y-91793628D01*
X115617731Y-91793628D02*
X115236779Y-91793628D01*
X160600057Y-95969046D02*
X160552438Y-95921427D01*
X160552438Y-95921427D02*
X160504819Y-95826189D01*
X160504819Y-95826189D02*
X160504819Y-95588094D01*
X160504819Y-95588094D02*
X160552438Y-95492856D01*
X160552438Y-95492856D02*
X160600057Y-95445237D01*
X160600057Y-95445237D02*
X160695295Y-95397618D01*
X160695295Y-95397618D02*
X160790533Y-95397618D01*
X160790533Y-95397618D02*
X160933390Y-95445237D01*
X160933390Y-95445237D02*
X161504819Y-96016665D01*
X161504819Y-96016665D02*
X161504819Y-95397618D01*
X161504819Y-94921427D02*
X161504819Y-94730951D01*
X161504819Y-94730951D02*
X161457200Y-94635713D01*
X161457200Y-94635713D02*
X161409580Y-94588094D01*
X161409580Y-94588094D02*
X161266723Y-94492856D01*
X161266723Y-94492856D02*
X161076247Y-94445237D01*
X161076247Y-94445237D02*
X160695295Y-94445237D01*
X160695295Y-94445237D02*
X160600057Y-94492856D01*
X160600057Y-94492856D02*
X160552438Y-94540475D01*
X160552438Y-94540475D02*
X160504819Y-94635713D01*
X160504819Y-94635713D02*
X160504819Y-94826189D01*
X160504819Y-94826189D02*
X160552438Y-94921427D01*
X160552438Y-94921427D02*
X160600057Y-94969046D01*
X160600057Y-94969046D02*
X160695295Y-95016665D01*
X160695295Y-95016665D02*
X160933390Y-95016665D01*
X160933390Y-95016665D02*
X161028628Y-94969046D01*
X161028628Y-94969046D02*
X161076247Y-94921427D01*
X161076247Y-94921427D02*
X161123866Y-94826189D01*
X161123866Y-94826189D02*
X161123866Y-94635713D01*
X161123866Y-94635713D02*
X161076247Y-94540475D01*
X161076247Y-94540475D02*
X161028628Y-94492856D01*
X161028628Y-94492856D02*
X160933390Y-94445237D01*
X161409580Y-94016665D02*
X161457200Y-93969046D01*
X161457200Y-93969046D02*
X161504819Y-94016665D01*
X161504819Y-94016665D02*
X161457200Y-94064284D01*
X161457200Y-94064284D02*
X161409580Y-94016665D01*
X161409580Y-94016665D02*
X161504819Y-94016665D01*
X160504819Y-93635713D02*
X160504819Y-93016666D01*
X160504819Y-93016666D02*
X160885771Y-93349999D01*
X160885771Y-93349999D02*
X160885771Y-93207142D01*
X160885771Y-93207142D02*
X160933390Y-93111904D01*
X160933390Y-93111904D02*
X160981009Y-93064285D01*
X160981009Y-93064285D02*
X161076247Y-93016666D01*
X161076247Y-93016666D02*
X161314342Y-93016666D01*
X161314342Y-93016666D02*
X161409580Y-93064285D01*
X161409580Y-93064285D02*
X161457200Y-93111904D01*
X161457200Y-93111904D02*
X161504819Y-93207142D01*
X161504819Y-93207142D02*
X161504819Y-93492856D01*
X161504819Y-93492856D02*
X161457200Y-93588094D01*
X161457200Y-93588094D02*
X161409580Y-93635713D01*
X160504819Y-92397618D02*
X160504819Y-92302380D01*
X160504819Y-92302380D02*
X160552438Y-92207142D01*
X160552438Y-92207142D02*
X160600057Y-92159523D01*
X160600057Y-92159523D02*
X160695295Y-92111904D01*
X160695295Y-92111904D02*
X160885771Y-92064285D01*
X160885771Y-92064285D02*
X161123866Y-92064285D01*
X161123866Y-92064285D02*
X161314342Y-92111904D01*
X161314342Y-92111904D02*
X161409580Y-92159523D01*
X161409580Y-92159523D02*
X161457200Y-92207142D01*
X161457200Y-92207142D02*
X161504819Y-92302380D01*
X161504819Y-92302380D02*
X161504819Y-92397618D01*
X161504819Y-92397618D02*
X161457200Y-92492856D01*
X161457200Y-92492856D02*
X161409580Y-92540475D01*
X161409580Y-92540475D02*
X161314342Y-92588094D01*
X161314342Y-92588094D02*
X161123866Y-92635713D01*
X161123866Y-92635713D02*
X160885771Y-92635713D01*
X160885771Y-92635713D02*
X160695295Y-92588094D01*
X160695295Y-92588094D02*
X160600057Y-92540475D01*
X160600057Y-92540475D02*
X160552438Y-92492856D01*
X160552438Y-92492856D02*
X160504819Y-92397618D01*
X160504819Y-91445237D02*
X160504819Y-91349999D01*
X160504819Y-91349999D02*
X160552438Y-91254761D01*
X160552438Y-91254761D02*
X160600057Y-91207142D01*
X160600057Y-91207142D02*
X160695295Y-91159523D01*
X160695295Y-91159523D02*
X160885771Y-91111904D01*
X160885771Y-91111904D02*
X161123866Y-91111904D01*
X161123866Y-91111904D02*
X161314342Y-91159523D01*
X161314342Y-91159523D02*
X161409580Y-91207142D01*
X161409580Y-91207142D02*
X161457200Y-91254761D01*
X161457200Y-91254761D02*
X161504819Y-91349999D01*
X161504819Y-91349999D02*
X161504819Y-91445237D01*
X161504819Y-91445237D02*
X161457200Y-91540475D01*
X161457200Y-91540475D02*
X161409580Y-91588094D01*
X161409580Y-91588094D02*
X161314342Y-91635713D01*
X161314342Y-91635713D02*
X161123866Y-91683332D01*
X161123866Y-91683332D02*
X160885771Y-91683332D01*
X160885771Y-91683332D02*
X160695295Y-91635713D01*
X160695295Y-91635713D02*
X160600057Y-91588094D01*
X160600057Y-91588094D02*
X160552438Y-91540475D01*
X160552438Y-91540475D02*
X160504819Y-91445237D01*
X160504819Y-90492856D02*
X160504819Y-90397618D01*
X160504819Y-90397618D02*
X160552438Y-90302380D01*
X160552438Y-90302380D02*
X160600057Y-90254761D01*
X160600057Y-90254761D02*
X160695295Y-90207142D01*
X160695295Y-90207142D02*
X160885771Y-90159523D01*
X160885771Y-90159523D02*
X161123866Y-90159523D01*
X161123866Y-90159523D02*
X161314342Y-90207142D01*
X161314342Y-90207142D02*
X161409580Y-90254761D01*
X161409580Y-90254761D02*
X161457200Y-90302380D01*
X161457200Y-90302380D02*
X161504819Y-90397618D01*
X161504819Y-90397618D02*
X161504819Y-90492856D01*
X161504819Y-90492856D02*
X161457200Y-90588094D01*
X161457200Y-90588094D02*
X161409580Y-90635713D01*
X161409580Y-90635713D02*
X161314342Y-90683332D01*
X161314342Y-90683332D02*
X161123866Y-90730951D01*
X161123866Y-90730951D02*
X160885771Y-90730951D01*
X160885771Y-90730951D02*
X160695295Y-90683332D01*
X160695295Y-90683332D02*
X160600057Y-90635713D01*
X160600057Y-90635713D02*
X160552438Y-90588094D01*
X160552438Y-90588094D02*
X160504819Y-90492856D01*
X161504819Y-88969046D02*
X160838152Y-88969046D01*
X160933390Y-88969046D02*
X160885771Y-88921427D01*
X160885771Y-88921427D02*
X160838152Y-88826189D01*
X160838152Y-88826189D02*
X160838152Y-88683332D01*
X160838152Y-88683332D02*
X160885771Y-88588094D01*
X160885771Y-88588094D02*
X160981009Y-88540475D01*
X160981009Y-88540475D02*
X161504819Y-88540475D01*
X160981009Y-88540475D02*
X160885771Y-88492856D01*
X160885771Y-88492856D02*
X160838152Y-88397618D01*
X160838152Y-88397618D02*
X160838152Y-88254761D01*
X160838152Y-88254761D02*
X160885771Y-88159522D01*
X160885771Y-88159522D02*
X160981009Y-88111903D01*
X160981009Y-88111903D02*
X161504819Y-88111903D01*
X161504819Y-87635713D02*
X160838152Y-87635713D01*
X160933390Y-87635713D02*
X160885771Y-87588094D01*
X160885771Y-87588094D02*
X160838152Y-87492856D01*
X160838152Y-87492856D02*
X160838152Y-87349999D01*
X160838152Y-87349999D02*
X160885771Y-87254761D01*
X160885771Y-87254761D02*
X160981009Y-87207142D01*
X160981009Y-87207142D02*
X161504819Y-87207142D01*
X160981009Y-87207142D02*
X160885771Y-87159523D01*
X160885771Y-87159523D02*
X160838152Y-87064285D01*
X160838152Y-87064285D02*
X160838152Y-86921428D01*
X160838152Y-86921428D02*
X160885771Y-86826189D01*
X160885771Y-86826189D02*
X160981009Y-86778570D01*
X160981009Y-86778570D02*
X161504819Y-86778570D01*
X162200000Y-106000000D02*
X162200000Y-106000000D01*
X161613580Y-76700000D02*
X161800000Y-76700000D01*
X162200000Y-106000000D02*
X162200000Y-76700000D01*
X162200000Y-106000000D02*
X161613579Y-104873496D01*
X162200000Y-106000000D02*
X162786421Y-104873496D01*
X162200000Y-76700000D02*
X162786421Y-77826504D01*
X162200000Y-76700000D02*
X161613579Y-77826504D01*
X132807143Y-109138152D02*
X132807143Y-109804819D01*
X132569048Y-108757200D02*
X132330953Y-109471485D01*
X132330953Y-109471485D02*
X132950000Y-109471485D01*
X133759524Y-108804819D02*
X133569048Y-108804819D01*
X133569048Y-108804819D02*
X133473810Y-108852438D01*
X133473810Y-108852438D02*
X133426191Y-108900057D01*
X133426191Y-108900057D02*
X133330953Y-109042914D01*
X133330953Y-109042914D02*
X133283334Y-109233390D01*
X133283334Y-109233390D02*
X133283334Y-109614342D01*
X133283334Y-109614342D02*
X133330953Y-109709580D01*
X133330953Y-109709580D02*
X133378572Y-109757200D01*
X133378572Y-109757200D02*
X133473810Y-109804819D01*
X133473810Y-109804819D02*
X133664286Y-109804819D01*
X133664286Y-109804819D02*
X133759524Y-109757200D01*
X133759524Y-109757200D02*
X133807143Y-109709580D01*
X133807143Y-109709580D02*
X133854762Y-109614342D01*
X133854762Y-109614342D02*
X133854762Y-109376247D01*
X133854762Y-109376247D02*
X133807143Y-109281009D01*
X133807143Y-109281009D02*
X133759524Y-109233390D01*
X133759524Y-109233390D02*
X133664286Y-109185771D01*
X133664286Y-109185771D02*
X133473810Y-109185771D01*
X133473810Y-109185771D02*
X133378572Y-109233390D01*
X133378572Y-109233390D02*
X133330953Y-109281009D01*
X133330953Y-109281009D02*
X133283334Y-109376247D01*
X134283334Y-109709580D02*
X134330953Y-109757200D01*
X134330953Y-109757200D02*
X134283334Y-109804819D01*
X134283334Y-109804819D02*
X134235715Y-109757200D01*
X134235715Y-109757200D02*
X134283334Y-109709580D01*
X134283334Y-109709580D02*
X134283334Y-109804819D01*
X135235714Y-108804819D02*
X134759524Y-108804819D01*
X134759524Y-108804819D02*
X134711905Y-109281009D01*
X134711905Y-109281009D02*
X134759524Y-109233390D01*
X134759524Y-109233390D02*
X134854762Y-109185771D01*
X134854762Y-109185771D02*
X135092857Y-109185771D01*
X135092857Y-109185771D02*
X135188095Y-109233390D01*
X135188095Y-109233390D02*
X135235714Y-109281009D01*
X135235714Y-109281009D02*
X135283333Y-109376247D01*
X135283333Y-109376247D02*
X135283333Y-109614342D01*
X135283333Y-109614342D02*
X135235714Y-109709580D01*
X135235714Y-109709580D02*
X135188095Y-109757200D01*
X135188095Y-109757200D02*
X135092857Y-109804819D01*
X135092857Y-109804819D02*
X134854762Y-109804819D01*
X134854762Y-109804819D02*
X134759524Y-109757200D01*
X134759524Y-109757200D02*
X134711905Y-109709580D01*
X135902381Y-108804819D02*
X135997619Y-108804819D01*
X135997619Y-108804819D02*
X136092857Y-108852438D01*
X136092857Y-108852438D02*
X136140476Y-108900057D01*
X136140476Y-108900057D02*
X136188095Y-108995295D01*
X136188095Y-108995295D02*
X136235714Y-109185771D01*
X136235714Y-109185771D02*
X136235714Y-109423866D01*
X136235714Y-109423866D02*
X136188095Y-109614342D01*
X136188095Y-109614342D02*
X136140476Y-109709580D01*
X136140476Y-109709580D02*
X136092857Y-109757200D01*
X136092857Y-109757200D02*
X135997619Y-109804819D01*
X135997619Y-109804819D02*
X135902381Y-109804819D01*
X135902381Y-109804819D02*
X135807143Y-109757200D01*
X135807143Y-109757200D02*
X135759524Y-109709580D01*
X135759524Y-109709580D02*
X135711905Y-109614342D01*
X135711905Y-109614342D02*
X135664286Y-109423866D01*
X135664286Y-109423866D02*
X135664286Y-109185771D01*
X135664286Y-109185771D02*
X135711905Y-108995295D01*
X135711905Y-108995295D02*
X135759524Y-108900057D01*
X135759524Y-108900057D02*
X135807143Y-108852438D01*
X135807143Y-108852438D02*
X135902381Y-108804819D01*
X136854762Y-108804819D02*
X136950000Y-108804819D01*
X136950000Y-108804819D02*
X137045238Y-108852438D01*
X137045238Y-108852438D02*
X137092857Y-108900057D01*
X137092857Y-108900057D02*
X137140476Y-108995295D01*
X137140476Y-108995295D02*
X137188095Y-109185771D01*
X137188095Y-109185771D02*
X137188095Y-109423866D01*
X137188095Y-109423866D02*
X137140476Y-109614342D01*
X137140476Y-109614342D02*
X137092857Y-109709580D01*
X137092857Y-109709580D02*
X137045238Y-109757200D01*
X137045238Y-109757200D02*
X136950000Y-109804819D01*
X136950000Y-109804819D02*
X136854762Y-109804819D01*
X136854762Y-109804819D02*
X136759524Y-109757200D01*
X136759524Y-109757200D02*
X136711905Y-109709580D01*
X136711905Y-109709580D02*
X136664286Y-109614342D01*
X136664286Y-109614342D02*
X136616667Y-109423866D01*
X136616667Y-109423866D02*
X136616667Y-109185771D01*
X136616667Y-109185771D02*
X136664286Y-108995295D01*
X136664286Y-108995295D02*
X136711905Y-108900057D01*
X136711905Y-108900057D02*
X136759524Y-108852438D01*
X136759524Y-108852438D02*
X136854762Y-108804819D01*
X137807143Y-108804819D02*
X137902381Y-108804819D01*
X137902381Y-108804819D02*
X137997619Y-108852438D01*
X137997619Y-108852438D02*
X138045238Y-108900057D01*
X138045238Y-108900057D02*
X138092857Y-108995295D01*
X138092857Y-108995295D02*
X138140476Y-109185771D01*
X138140476Y-109185771D02*
X138140476Y-109423866D01*
X138140476Y-109423866D02*
X138092857Y-109614342D01*
X138092857Y-109614342D02*
X138045238Y-109709580D01*
X138045238Y-109709580D02*
X137997619Y-109757200D01*
X137997619Y-109757200D02*
X137902381Y-109804819D01*
X137902381Y-109804819D02*
X137807143Y-109804819D01*
X137807143Y-109804819D02*
X137711905Y-109757200D01*
X137711905Y-109757200D02*
X137664286Y-109709580D01*
X137664286Y-109709580D02*
X137616667Y-109614342D01*
X137616667Y-109614342D02*
X137569048Y-109423866D01*
X137569048Y-109423866D02*
X137569048Y-109185771D01*
X137569048Y-109185771D02*
X137616667Y-108995295D01*
X137616667Y-108995295D02*
X137664286Y-108900057D01*
X137664286Y-108900057D02*
X137711905Y-108852438D01*
X137711905Y-108852438D02*
X137807143Y-108804819D01*
X139330953Y-109804819D02*
X139330953Y-109138152D01*
X139330953Y-109233390D02*
X139378572Y-109185771D01*
X139378572Y-109185771D02*
X139473810Y-109138152D01*
X139473810Y-109138152D02*
X139616667Y-109138152D01*
X139616667Y-109138152D02*
X139711905Y-109185771D01*
X139711905Y-109185771D02*
X139759524Y-109281009D01*
X139759524Y-109281009D02*
X139759524Y-109804819D01*
X139759524Y-109281009D02*
X139807143Y-109185771D01*
X139807143Y-109185771D02*
X139902381Y-109138152D01*
X139902381Y-109138152D02*
X140045238Y-109138152D01*
X140045238Y-109138152D02*
X140140477Y-109185771D01*
X140140477Y-109185771D02*
X140188096Y-109281009D01*
X140188096Y-109281009D02*
X140188096Y-109804819D01*
X140664286Y-109804819D02*
X140664286Y-109138152D01*
X140664286Y-109233390D02*
X140711905Y-109185771D01*
X140711905Y-109185771D02*
X140807143Y-109138152D01*
X140807143Y-109138152D02*
X140950000Y-109138152D01*
X140950000Y-109138152D02*
X141045238Y-109185771D01*
X141045238Y-109185771D02*
X141092857Y-109281009D01*
X141092857Y-109281009D02*
X141092857Y-109804819D01*
X141092857Y-109281009D02*
X141140476Y-109185771D01*
X141140476Y-109185771D02*
X141235714Y-109138152D01*
X141235714Y-109138152D02*
X141378571Y-109138152D01*
X141378571Y-109138152D02*
X141473810Y-109185771D01*
X141473810Y-109185771D02*
X141521429Y-109281009D01*
X141521429Y-109281009D02*
X141521429Y-109804819D01*
X160200000Y-108300000D02*
X160200000Y-111086420D01*
X113700000Y-111086420D02*
X113700000Y-107600000D01*
X160200000Y-110500000D02*
X113700000Y-110500000D01*
X160200000Y-110500000D02*
X159073496Y-111086421D01*
X160200000Y-110500000D02*
X159073496Y-109913579D01*
X113700000Y-110500000D02*
X114826504Y-109913579D01*
X113700000Y-110500000D02*
X114826504Y-111086421D01*
X130954819Y-103916666D02*
X130478628Y-104249999D01*
X130954819Y-104488094D02*
X129954819Y-104488094D01*
X129954819Y-104488094D02*
X129954819Y-104107142D01*
X129954819Y-104107142D02*
X130002438Y-104011904D01*
X130002438Y-104011904D02*
X130050057Y-103964285D01*
X130050057Y-103964285D02*
X130145295Y-103916666D01*
X130145295Y-103916666D02*
X130288152Y-103916666D01*
X130288152Y-103916666D02*
X130383390Y-103964285D01*
X130383390Y-103964285D02*
X130431009Y-104011904D01*
X130431009Y-104011904D02*
X130478628Y-104107142D01*
X130478628Y-104107142D02*
X130478628Y-104488094D01*
X130050057Y-103535713D02*
X130002438Y-103488094D01*
X130002438Y-103488094D02*
X129954819Y-103392856D01*
X129954819Y-103392856D02*
X129954819Y-103154761D01*
X129954819Y-103154761D02*
X130002438Y-103059523D01*
X130002438Y-103059523D02*
X130050057Y-103011904D01*
X130050057Y-103011904D02*
X130145295Y-102964285D01*
X130145295Y-102964285D02*
X130240533Y-102964285D01*
X130240533Y-102964285D02*
X130383390Y-103011904D01*
X130383390Y-103011904D02*
X130954819Y-103583332D01*
X130954819Y-103583332D02*
X130954819Y-102964285D01*
X128595180Y-103153571D02*
X129261847Y-103153571D01*
X129071371Y-103153571D02*
X129166609Y-103201190D01*
X129166609Y-103201190D02*
X129214228Y-103248809D01*
X129214228Y-103248809D02*
X129261847Y-103344047D01*
X129261847Y-103344047D02*
X129261847Y-103439285D01*
X135857142Y-87054819D02*
X135523809Y-86578628D01*
X135285714Y-87054819D02*
X135285714Y-86054819D01*
X135285714Y-86054819D02*
X135666666Y-86054819D01*
X135666666Y-86054819D02*
X135761904Y-86102438D01*
X135761904Y-86102438D02*
X135809523Y-86150057D01*
X135809523Y-86150057D02*
X135857142Y-86245295D01*
X135857142Y-86245295D02*
X135857142Y-86388152D01*
X135857142Y-86388152D02*
X135809523Y-86483390D01*
X135809523Y-86483390D02*
X135761904Y-86531009D01*
X135761904Y-86531009D02*
X135666666Y-86578628D01*
X135666666Y-86578628D02*
X135285714Y-86578628D01*
X136809523Y-87054819D02*
X136238095Y-87054819D01*
X136523809Y-87054819D02*
X136523809Y-86054819D01*
X136523809Y-86054819D02*
X136428571Y-86197676D01*
X136428571Y-86197676D02*
X136333333Y-86292914D01*
X136333333Y-86292914D02*
X136238095Y-86340533D01*
X137142857Y-86054819D02*
X137761904Y-86054819D01*
X137761904Y-86054819D02*
X137428571Y-86435771D01*
X137428571Y-86435771D02*
X137571428Y-86435771D01*
X137571428Y-86435771D02*
X137666666Y-86483390D01*
X137666666Y-86483390D02*
X137714285Y-86531009D01*
X137714285Y-86531009D02*
X137761904Y-86626247D01*
X137761904Y-86626247D02*
X137761904Y-86864342D01*
X137761904Y-86864342D02*
X137714285Y-86959580D01*
X137714285Y-86959580D02*
X137666666Y-87007200D01*
X137666666Y-87007200D02*
X137571428Y-87054819D01*
X137571428Y-87054819D02*
X137285714Y-87054819D01*
X137285714Y-87054819D02*
X137190476Y-87007200D01*
X137190476Y-87007200D02*
X137142857Y-86959580D01*
X136628571Y-88554819D02*
X136628571Y-87888152D01*
X136628571Y-88078628D02*
X136676190Y-87983390D01*
X136676190Y-87983390D02*
X136723809Y-87935771D01*
X136723809Y-87935771D02*
X136819047Y-87888152D01*
X136819047Y-87888152D02*
X136914285Y-87888152D01*
X136633333Y-78254819D02*
X136300000Y-77778628D01*
X136061905Y-78254819D02*
X136061905Y-77254819D01*
X136061905Y-77254819D02*
X136442857Y-77254819D01*
X136442857Y-77254819D02*
X136538095Y-77302438D01*
X136538095Y-77302438D02*
X136585714Y-77350057D01*
X136585714Y-77350057D02*
X136633333Y-77445295D01*
X136633333Y-77445295D02*
X136633333Y-77588152D01*
X136633333Y-77588152D02*
X136585714Y-77683390D01*
X136585714Y-77683390D02*
X136538095Y-77731009D01*
X136538095Y-77731009D02*
X136442857Y-77778628D01*
X136442857Y-77778628D02*
X136061905Y-77778628D01*
X137538095Y-77254819D02*
X137061905Y-77254819D01*
X137061905Y-77254819D02*
X137014286Y-77731009D01*
X137014286Y-77731009D02*
X137061905Y-77683390D01*
X137061905Y-77683390D02*
X137157143Y-77635771D01*
X137157143Y-77635771D02*
X137395238Y-77635771D01*
X137395238Y-77635771D02*
X137490476Y-77683390D01*
X137490476Y-77683390D02*
X137538095Y-77731009D01*
X137538095Y-77731009D02*
X137585714Y-77826247D01*
X137585714Y-77826247D02*
X137585714Y-78064342D01*
X137585714Y-78064342D02*
X137538095Y-78159580D01*
X137538095Y-78159580D02*
X137490476Y-78207200D01*
X137490476Y-78207200D02*
X137395238Y-78254819D01*
X137395238Y-78254819D02*
X137157143Y-78254819D01*
X137157143Y-78254819D02*
X137061905Y-78207200D01*
X137061905Y-78207200D02*
X137014286Y-78159580D01*
X136628571Y-79754819D02*
X136628571Y-79088152D01*
X136628571Y-79278628D02*
X136676190Y-79183390D01*
X136676190Y-79183390D02*
X136723809Y-79135771D01*
X136723809Y-79135771D02*
X136819047Y-79088152D01*
X136819047Y-79088152D02*
X136914285Y-79088152D01*
X124333333Y-103559580D02*
X124285714Y-103607200D01*
X124285714Y-103607200D02*
X124142857Y-103654819D01*
X124142857Y-103654819D02*
X124047619Y-103654819D01*
X124047619Y-103654819D02*
X123904762Y-103607200D01*
X123904762Y-103607200D02*
X123809524Y-103511961D01*
X123809524Y-103511961D02*
X123761905Y-103416723D01*
X123761905Y-103416723D02*
X123714286Y-103226247D01*
X123714286Y-103226247D02*
X123714286Y-103083390D01*
X123714286Y-103083390D02*
X123761905Y-102892914D01*
X123761905Y-102892914D02*
X123809524Y-102797676D01*
X123809524Y-102797676D02*
X123904762Y-102702438D01*
X123904762Y-102702438D02*
X124047619Y-102654819D01*
X124047619Y-102654819D02*
X124142857Y-102654819D01*
X124142857Y-102654819D02*
X124285714Y-102702438D01*
X124285714Y-102702438D02*
X124333333Y-102750057D01*
X125190476Y-102988152D02*
X125190476Y-103654819D01*
X124952381Y-102607200D02*
X124714286Y-103321485D01*
X124714286Y-103321485D02*
X125333333Y-103321485D01*
X126192800Y-103500595D02*
X126145180Y-103405357D01*
X126145180Y-103405357D02*
X126145180Y-103214881D01*
X126145180Y-103214881D02*
X126192800Y-103119643D01*
X126192800Y-103119643D02*
X126240419Y-103072024D01*
X126240419Y-103072024D02*
X126335657Y-103024405D01*
X126335657Y-103024405D02*
X126621371Y-103024405D01*
X126621371Y-103024405D02*
X126716609Y-103072024D01*
X126716609Y-103072024D02*
X126764228Y-103119643D01*
X126764228Y-103119643D02*
X126811847Y-103214881D01*
X126811847Y-103214881D02*
X126811847Y-103405357D01*
X126811847Y-103405357D02*
X126764228Y-103500595D01*
X147857142Y-104954819D02*
X147523809Y-104478628D01*
X147285714Y-104954819D02*
X147285714Y-103954819D01*
X147285714Y-103954819D02*
X147666666Y-103954819D01*
X147666666Y-103954819D02*
X147761904Y-104002438D01*
X147761904Y-104002438D02*
X147809523Y-104050057D01*
X147809523Y-104050057D02*
X147857142Y-104145295D01*
X147857142Y-104145295D02*
X147857142Y-104288152D01*
X147857142Y-104288152D02*
X147809523Y-104383390D01*
X147809523Y-104383390D02*
X147761904Y-104431009D01*
X147761904Y-104431009D02*
X147666666Y-104478628D01*
X147666666Y-104478628D02*
X147285714Y-104478628D01*
X148809523Y-104954819D02*
X148238095Y-104954819D01*
X148523809Y-104954819D02*
X148523809Y-103954819D01*
X148523809Y-103954819D02*
X148428571Y-104097676D01*
X148428571Y-104097676D02*
X148333333Y-104192914D01*
X148333333Y-104192914D02*
X148238095Y-104240533D01*
X149428571Y-103954819D02*
X149523809Y-103954819D01*
X149523809Y-103954819D02*
X149619047Y-104002438D01*
X149619047Y-104002438D02*
X149666666Y-104050057D01*
X149666666Y-104050057D02*
X149714285Y-104145295D01*
X149714285Y-104145295D02*
X149761904Y-104335771D01*
X149761904Y-104335771D02*
X149761904Y-104573866D01*
X149761904Y-104573866D02*
X149714285Y-104764342D01*
X149714285Y-104764342D02*
X149666666Y-104859580D01*
X149666666Y-104859580D02*
X149619047Y-104907200D01*
X149619047Y-104907200D02*
X149523809Y-104954819D01*
X149523809Y-104954819D02*
X149428571Y-104954819D01*
X149428571Y-104954819D02*
X149333333Y-104907200D01*
X149333333Y-104907200D02*
X149285714Y-104859580D01*
X149285714Y-104859580D02*
X149238095Y-104764342D01*
X149238095Y-104764342D02*
X149190476Y-104573866D01*
X149190476Y-104573866D02*
X149190476Y-104335771D01*
X149190476Y-104335771D02*
X149238095Y-104145295D01*
X149238095Y-104145295D02*
X149285714Y-104050057D01*
X149285714Y-104050057D02*
X149333333Y-104002438D01*
X149333333Y-104002438D02*
X149428571Y-103954819D01*
X133733333Y-97354819D02*
X133400000Y-96878628D01*
X133161905Y-97354819D02*
X133161905Y-96354819D01*
X133161905Y-96354819D02*
X133542857Y-96354819D01*
X133542857Y-96354819D02*
X133638095Y-96402438D01*
X133638095Y-96402438D02*
X133685714Y-96450057D01*
X133685714Y-96450057D02*
X133733333Y-96545295D01*
X133733333Y-96545295D02*
X133733333Y-96688152D01*
X133733333Y-96688152D02*
X133685714Y-96783390D01*
X133685714Y-96783390D02*
X133638095Y-96831009D01*
X133638095Y-96831009D02*
X133542857Y-96878628D01*
X133542857Y-96878628D02*
X133161905Y-96878628D01*
X134590476Y-96354819D02*
X134400000Y-96354819D01*
X134400000Y-96354819D02*
X134304762Y-96402438D01*
X134304762Y-96402438D02*
X134257143Y-96450057D01*
X134257143Y-96450057D02*
X134161905Y-96592914D01*
X134161905Y-96592914D02*
X134114286Y-96783390D01*
X134114286Y-96783390D02*
X134114286Y-97164342D01*
X134114286Y-97164342D02*
X134161905Y-97259580D01*
X134161905Y-97259580D02*
X134209524Y-97307200D01*
X134209524Y-97307200D02*
X134304762Y-97354819D01*
X134304762Y-97354819D02*
X134495238Y-97354819D01*
X134495238Y-97354819D02*
X134590476Y-97307200D01*
X134590476Y-97307200D02*
X134638095Y-97259580D01*
X134638095Y-97259580D02*
X134685714Y-97164342D01*
X134685714Y-97164342D02*
X134685714Y-96926247D01*
X134685714Y-96926247D02*
X134638095Y-96831009D01*
X134638095Y-96831009D02*
X134590476Y-96783390D01*
X134590476Y-96783390D02*
X134495238Y-96735771D01*
X134495238Y-96735771D02*
X134304762Y-96735771D01*
X134304762Y-96735771D02*
X134209524Y-96783390D01*
X134209524Y-96783390D02*
X134161905Y-96831009D01*
X134161905Y-96831009D02*
X134114286Y-96926247D01*
X130807142Y-98834580D02*
X130759523Y-98882200D01*
X130759523Y-98882200D02*
X130616666Y-98929819D01*
X130616666Y-98929819D02*
X130521428Y-98929819D01*
X130521428Y-98929819D02*
X130378571Y-98882200D01*
X130378571Y-98882200D02*
X130283333Y-98786961D01*
X130283333Y-98786961D02*
X130235714Y-98691723D01*
X130235714Y-98691723D02*
X130188095Y-98501247D01*
X130188095Y-98501247D02*
X130188095Y-98358390D01*
X130188095Y-98358390D02*
X130235714Y-98167914D01*
X130235714Y-98167914D02*
X130283333Y-98072676D01*
X130283333Y-98072676D02*
X130378571Y-97977438D01*
X130378571Y-97977438D02*
X130521428Y-97929819D01*
X130521428Y-97929819D02*
X130616666Y-97929819D01*
X130616666Y-97929819D02*
X130759523Y-97977438D01*
X130759523Y-97977438D02*
X130807142Y-98025057D01*
X131188095Y-98025057D02*
X131235714Y-97977438D01*
X131235714Y-97977438D02*
X131330952Y-97929819D01*
X131330952Y-97929819D02*
X131569047Y-97929819D01*
X131569047Y-97929819D02*
X131664285Y-97977438D01*
X131664285Y-97977438D02*
X131711904Y-98025057D01*
X131711904Y-98025057D02*
X131759523Y-98120295D01*
X131759523Y-98120295D02*
X131759523Y-98215533D01*
X131759523Y-98215533D02*
X131711904Y-98358390D01*
X131711904Y-98358390D02*
X131140476Y-98929819D01*
X131140476Y-98929819D02*
X131759523Y-98929819D01*
X132711904Y-98929819D02*
X132140476Y-98929819D01*
X132426190Y-98929819D02*
X132426190Y-97929819D01*
X132426190Y-97929819D02*
X132330952Y-98072676D01*
X132330952Y-98072676D02*
X132235714Y-98167914D01*
X132235714Y-98167914D02*
X132140476Y-98215533D01*
X128492800Y-99300595D02*
X128445180Y-99205357D01*
X128445180Y-99205357D02*
X128445180Y-99014881D01*
X128445180Y-99014881D02*
X128492800Y-98919643D01*
X128492800Y-98919643D02*
X128540419Y-98872024D01*
X128540419Y-98872024D02*
X128635657Y-98824405D01*
X128635657Y-98824405D02*
X128921371Y-98824405D01*
X128921371Y-98824405D02*
X129016609Y-98872024D01*
X129016609Y-98872024D02*
X129064228Y-98919643D01*
X129064228Y-98919643D02*
X129111847Y-99014881D01*
X129111847Y-99014881D02*
X129111847Y-99205357D01*
X129111847Y-99205357D02*
X129064228Y-99300595D01*
X122633333Y-89054819D02*
X122300000Y-88578628D01*
X122061905Y-89054819D02*
X122061905Y-88054819D01*
X122061905Y-88054819D02*
X122442857Y-88054819D01*
X122442857Y-88054819D02*
X122538095Y-88102438D01*
X122538095Y-88102438D02*
X122585714Y-88150057D01*
X122585714Y-88150057D02*
X122633333Y-88245295D01*
X122633333Y-88245295D02*
X122633333Y-88388152D01*
X122633333Y-88388152D02*
X122585714Y-88483390D01*
X122585714Y-88483390D02*
X122538095Y-88531009D01*
X122538095Y-88531009D02*
X122442857Y-88578628D01*
X122442857Y-88578628D02*
X122061905Y-88578628D01*
X123490476Y-88388152D02*
X123490476Y-89054819D01*
X123252381Y-88007200D02*
X123014286Y-88721485D01*
X123014286Y-88721485D02*
X123633333Y-88721485D01*
X119871428Y-88345180D02*
X119871428Y-89011847D01*
X119871428Y-88821371D02*
X119823809Y-88916609D01*
X119823809Y-88916609D02*
X119776190Y-88964228D01*
X119776190Y-88964228D02*
X119680952Y-89011847D01*
X119680952Y-89011847D02*
X119585714Y-89011847D01*
X124333333Y-100029819D02*
X124000000Y-99553628D01*
X123761905Y-100029819D02*
X123761905Y-99029819D01*
X123761905Y-99029819D02*
X124142857Y-99029819D01*
X124142857Y-99029819D02*
X124238095Y-99077438D01*
X124238095Y-99077438D02*
X124285714Y-99125057D01*
X124285714Y-99125057D02*
X124333333Y-99220295D01*
X124333333Y-99220295D02*
X124333333Y-99363152D01*
X124333333Y-99363152D02*
X124285714Y-99458390D01*
X124285714Y-99458390D02*
X124238095Y-99506009D01*
X124238095Y-99506009D02*
X124142857Y-99553628D01*
X124142857Y-99553628D02*
X123761905Y-99553628D01*
X125285714Y-100029819D02*
X124714286Y-100029819D01*
X125000000Y-100029819D02*
X125000000Y-99029819D01*
X125000000Y-99029819D02*
X124904762Y-99172676D01*
X124904762Y-99172676D02*
X124809524Y-99267914D01*
X124809524Y-99267914D02*
X124714286Y-99315533D01*
X126045180Y-98853571D02*
X126711847Y-98853571D01*
X126521371Y-98853571D02*
X126616609Y-98901190D01*
X126616609Y-98901190D02*
X126664228Y-98948809D01*
X126664228Y-98948809D02*
X126711847Y-99044047D01*
X126711847Y-99044047D02*
X126711847Y-99139285D01*
X151957142Y-96354819D02*
X151623809Y-95878628D01*
X151385714Y-96354819D02*
X151385714Y-95354819D01*
X151385714Y-95354819D02*
X151766666Y-95354819D01*
X151766666Y-95354819D02*
X151861904Y-95402438D01*
X151861904Y-95402438D02*
X151909523Y-95450057D01*
X151909523Y-95450057D02*
X151957142Y-95545295D01*
X151957142Y-95545295D02*
X151957142Y-95688152D01*
X151957142Y-95688152D02*
X151909523Y-95783390D01*
X151909523Y-95783390D02*
X151861904Y-95831009D01*
X151861904Y-95831009D02*
X151766666Y-95878628D01*
X151766666Y-95878628D02*
X151385714Y-95878628D01*
X152909523Y-96354819D02*
X152338095Y-96354819D01*
X152623809Y-96354819D02*
X152623809Y-95354819D01*
X152623809Y-95354819D02*
X152528571Y-95497676D01*
X152528571Y-95497676D02*
X152433333Y-95592914D01*
X152433333Y-95592914D02*
X152338095Y-95640533D01*
X153480952Y-95783390D02*
X153385714Y-95735771D01*
X153385714Y-95735771D02*
X153338095Y-95688152D01*
X153338095Y-95688152D02*
X153290476Y-95592914D01*
X153290476Y-95592914D02*
X153290476Y-95545295D01*
X153290476Y-95545295D02*
X153338095Y-95450057D01*
X153338095Y-95450057D02*
X153385714Y-95402438D01*
X153385714Y-95402438D02*
X153480952Y-95354819D01*
X153480952Y-95354819D02*
X153671428Y-95354819D01*
X153671428Y-95354819D02*
X153766666Y-95402438D01*
X153766666Y-95402438D02*
X153814285Y-95450057D01*
X153814285Y-95450057D02*
X153861904Y-95545295D01*
X153861904Y-95545295D02*
X153861904Y-95592914D01*
X153861904Y-95592914D02*
X153814285Y-95688152D01*
X153814285Y-95688152D02*
X153766666Y-95735771D01*
X153766666Y-95735771D02*
X153671428Y-95783390D01*
X153671428Y-95783390D02*
X153480952Y-95783390D01*
X153480952Y-95783390D02*
X153385714Y-95831009D01*
X153385714Y-95831009D02*
X153338095Y-95878628D01*
X153338095Y-95878628D02*
X153290476Y-95973866D01*
X153290476Y-95973866D02*
X153290476Y-96164342D01*
X153290476Y-96164342D02*
X153338095Y-96259580D01*
X153338095Y-96259580D02*
X153385714Y-96307200D01*
X153385714Y-96307200D02*
X153480952Y-96354819D01*
X153480952Y-96354819D02*
X153671428Y-96354819D01*
X153671428Y-96354819D02*
X153766666Y-96307200D01*
X153766666Y-96307200D02*
X153814285Y-96259580D01*
X153814285Y-96259580D02*
X153861904Y-96164342D01*
X153861904Y-96164342D02*
X153861904Y-95973866D01*
X153861904Y-95973866D02*
X153814285Y-95878628D01*
X153814285Y-95878628D02*
X153766666Y-95831009D01*
X153766666Y-95831009D02*
X153671428Y-95783390D01*
X142757142Y-99754819D02*
X142423809Y-99278628D01*
X142185714Y-99754819D02*
X142185714Y-98754819D01*
X142185714Y-98754819D02*
X142566666Y-98754819D01*
X142566666Y-98754819D02*
X142661904Y-98802438D01*
X142661904Y-98802438D02*
X142709523Y-98850057D01*
X142709523Y-98850057D02*
X142757142Y-98945295D01*
X142757142Y-98945295D02*
X142757142Y-99088152D01*
X142757142Y-99088152D02*
X142709523Y-99183390D01*
X142709523Y-99183390D02*
X142661904Y-99231009D01*
X142661904Y-99231009D02*
X142566666Y-99278628D01*
X142566666Y-99278628D02*
X142185714Y-99278628D01*
X143709523Y-99754819D02*
X143138095Y-99754819D01*
X143423809Y-99754819D02*
X143423809Y-98754819D01*
X143423809Y-98754819D02*
X143328571Y-98897676D01*
X143328571Y-98897676D02*
X143233333Y-98992914D01*
X143233333Y-98992914D02*
X143138095Y-99040533D01*
X144090476Y-98850057D02*
X144138095Y-98802438D01*
X144138095Y-98802438D02*
X144233333Y-98754819D01*
X144233333Y-98754819D02*
X144471428Y-98754819D01*
X144471428Y-98754819D02*
X144566666Y-98802438D01*
X144566666Y-98802438D02*
X144614285Y-98850057D01*
X144614285Y-98850057D02*
X144661904Y-98945295D01*
X144661904Y-98945295D02*
X144661904Y-99040533D01*
X144661904Y-99040533D02*
X144614285Y-99183390D01*
X144614285Y-99183390D02*
X144042857Y-99754819D01*
X144042857Y-99754819D02*
X144661904Y-99754819D01*
X152357142Y-100954819D02*
X152023809Y-100478628D01*
X151785714Y-100954819D02*
X151785714Y-99954819D01*
X151785714Y-99954819D02*
X152166666Y-99954819D01*
X152166666Y-99954819D02*
X152261904Y-100002438D01*
X152261904Y-100002438D02*
X152309523Y-100050057D01*
X152309523Y-100050057D02*
X152357142Y-100145295D01*
X152357142Y-100145295D02*
X152357142Y-100288152D01*
X152357142Y-100288152D02*
X152309523Y-100383390D01*
X152309523Y-100383390D02*
X152261904Y-100431009D01*
X152261904Y-100431009D02*
X152166666Y-100478628D01*
X152166666Y-100478628D02*
X151785714Y-100478628D01*
X153309523Y-100954819D02*
X152738095Y-100954819D01*
X153023809Y-100954819D02*
X153023809Y-99954819D01*
X153023809Y-99954819D02*
X152928571Y-100097676D01*
X152928571Y-100097676D02*
X152833333Y-100192914D01*
X152833333Y-100192914D02*
X152738095Y-100240533D01*
X154166666Y-99954819D02*
X153976190Y-99954819D01*
X153976190Y-99954819D02*
X153880952Y-100002438D01*
X153880952Y-100002438D02*
X153833333Y-100050057D01*
X153833333Y-100050057D02*
X153738095Y-100192914D01*
X153738095Y-100192914D02*
X153690476Y-100383390D01*
X153690476Y-100383390D02*
X153690476Y-100764342D01*
X153690476Y-100764342D02*
X153738095Y-100859580D01*
X153738095Y-100859580D02*
X153785714Y-100907200D01*
X153785714Y-100907200D02*
X153880952Y-100954819D01*
X153880952Y-100954819D02*
X154071428Y-100954819D01*
X154071428Y-100954819D02*
X154166666Y-100907200D01*
X154166666Y-100907200D02*
X154214285Y-100859580D01*
X154214285Y-100859580D02*
X154261904Y-100764342D01*
X154261904Y-100764342D02*
X154261904Y-100526247D01*
X154261904Y-100526247D02*
X154214285Y-100431009D01*
X154214285Y-100431009D02*
X154166666Y-100383390D01*
X154166666Y-100383390D02*
X154071428Y-100335771D01*
X154071428Y-100335771D02*
X153880952Y-100335771D01*
X153880952Y-100335771D02*
X153785714Y-100383390D01*
X153785714Y-100383390D02*
X153738095Y-100431009D01*
X153738095Y-100431009D02*
X153690476Y-100526247D01*
X152307142Y-89954819D02*
X151973809Y-89478628D01*
X151735714Y-89954819D02*
X151735714Y-88954819D01*
X151735714Y-88954819D02*
X152116666Y-88954819D01*
X152116666Y-88954819D02*
X152211904Y-89002438D01*
X152211904Y-89002438D02*
X152259523Y-89050057D01*
X152259523Y-89050057D02*
X152307142Y-89145295D01*
X152307142Y-89145295D02*
X152307142Y-89288152D01*
X152307142Y-89288152D02*
X152259523Y-89383390D01*
X152259523Y-89383390D02*
X152211904Y-89431009D01*
X152211904Y-89431009D02*
X152116666Y-89478628D01*
X152116666Y-89478628D02*
X151735714Y-89478628D01*
X153259523Y-89954819D02*
X152688095Y-89954819D01*
X152973809Y-89954819D02*
X152973809Y-88954819D01*
X152973809Y-88954819D02*
X152878571Y-89097676D01*
X152878571Y-89097676D02*
X152783333Y-89192914D01*
X152783333Y-89192914D02*
X152688095Y-89240533D01*
X153592857Y-88954819D02*
X154259523Y-88954819D01*
X154259523Y-88954819D02*
X153830952Y-89954819D01*
X143233333Y-78054819D02*
X142900000Y-77578628D01*
X142661905Y-78054819D02*
X142661905Y-77054819D01*
X142661905Y-77054819D02*
X143042857Y-77054819D01*
X143042857Y-77054819D02*
X143138095Y-77102438D01*
X143138095Y-77102438D02*
X143185714Y-77150057D01*
X143185714Y-77150057D02*
X143233333Y-77245295D01*
X143233333Y-77245295D02*
X143233333Y-77388152D01*
X143233333Y-77388152D02*
X143185714Y-77483390D01*
X143185714Y-77483390D02*
X143138095Y-77531009D01*
X143138095Y-77531009D02*
X143042857Y-77578628D01*
X143042857Y-77578628D02*
X142661905Y-77578628D01*
X143804762Y-77483390D02*
X143709524Y-77435771D01*
X143709524Y-77435771D02*
X143661905Y-77388152D01*
X143661905Y-77388152D02*
X143614286Y-77292914D01*
X143614286Y-77292914D02*
X143614286Y-77245295D01*
X143614286Y-77245295D02*
X143661905Y-77150057D01*
X143661905Y-77150057D02*
X143709524Y-77102438D01*
X143709524Y-77102438D02*
X143804762Y-77054819D01*
X143804762Y-77054819D02*
X143995238Y-77054819D01*
X143995238Y-77054819D02*
X144090476Y-77102438D01*
X144090476Y-77102438D02*
X144138095Y-77150057D01*
X144138095Y-77150057D02*
X144185714Y-77245295D01*
X144185714Y-77245295D02*
X144185714Y-77292914D01*
X144185714Y-77292914D02*
X144138095Y-77388152D01*
X144138095Y-77388152D02*
X144090476Y-77435771D01*
X144090476Y-77435771D02*
X143995238Y-77483390D01*
X143995238Y-77483390D02*
X143804762Y-77483390D01*
X143804762Y-77483390D02*
X143709524Y-77531009D01*
X143709524Y-77531009D02*
X143661905Y-77578628D01*
X143661905Y-77578628D02*
X143614286Y-77673866D01*
X143614286Y-77673866D02*
X143614286Y-77864342D01*
X143614286Y-77864342D02*
X143661905Y-77959580D01*
X143661905Y-77959580D02*
X143709524Y-78007200D01*
X143709524Y-78007200D02*
X143804762Y-78054819D01*
X143804762Y-78054819D02*
X143995238Y-78054819D01*
X143995238Y-78054819D02*
X144090476Y-78007200D01*
X144090476Y-78007200D02*
X144138095Y-77959580D01*
X144138095Y-77959580D02*
X144185714Y-77864342D01*
X144185714Y-77864342D02*
X144185714Y-77673866D01*
X144185714Y-77673866D02*
X144138095Y-77578628D01*
X144138095Y-77578628D02*
X144090476Y-77531009D01*
X144090476Y-77531009D02*
X143995238Y-77483390D01*
X143228571Y-79854819D02*
X143228571Y-79188152D01*
X143228571Y-79378628D02*
X143276190Y-79283390D01*
X143276190Y-79283390D02*
X143323809Y-79235771D01*
X143323809Y-79235771D02*
X143419047Y-79188152D01*
X143419047Y-79188152D02*
X143514285Y-79188152D01*
X122533333Y-91259580D02*
X122485714Y-91307200D01*
X122485714Y-91307200D02*
X122342857Y-91354819D01*
X122342857Y-91354819D02*
X122247619Y-91354819D01*
X122247619Y-91354819D02*
X122104762Y-91307200D01*
X122104762Y-91307200D02*
X122009524Y-91211961D01*
X122009524Y-91211961D02*
X121961905Y-91116723D01*
X121961905Y-91116723D02*
X121914286Y-90926247D01*
X121914286Y-90926247D02*
X121914286Y-90783390D01*
X121914286Y-90783390D02*
X121961905Y-90592914D01*
X121961905Y-90592914D02*
X122009524Y-90497676D01*
X122009524Y-90497676D02*
X122104762Y-90402438D01*
X122104762Y-90402438D02*
X122247619Y-90354819D01*
X122247619Y-90354819D02*
X122342857Y-90354819D01*
X122342857Y-90354819D02*
X122485714Y-90402438D01*
X122485714Y-90402438D02*
X122533333Y-90450057D01*
X123390476Y-90354819D02*
X123200000Y-90354819D01*
X123200000Y-90354819D02*
X123104762Y-90402438D01*
X123104762Y-90402438D02*
X123057143Y-90450057D01*
X123057143Y-90450057D02*
X122961905Y-90592914D01*
X122961905Y-90592914D02*
X122914286Y-90783390D01*
X122914286Y-90783390D02*
X122914286Y-91164342D01*
X122914286Y-91164342D02*
X122961905Y-91259580D01*
X122961905Y-91259580D02*
X123009524Y-91307200D01*
X123009524Y-91307200D02*
X123104762Y-91354819D01*
X123104762Y-91354819D02*
X123295238Y-91354819D01*
X123295238Y-91354819D02*
X123390476Y-91307200D01*
X123390476Y-91307200D02*
X123438095Y-91259580D01*
X123438095Y-91259580D02*
X123485714Y-91164342D01*
X123485714Y-91164342D02*
X123485714Y-90926247D01*
X123485714Y-90926247D02*
X123438095Y-90831009D01*
X123438095Y-90831009D02*
X123390476Y-90783390D01*
X123390476Y-90783390D02*
X123295238Y-90735771D01*
X123295238Y-90735771D02*
X123104762Y-90735771D01*
X123104762Y-90735771D02*
X123009524Y-90783390D01*
X123009524Y-90783390D02*
X122961905Y-90831009D01*
X122961905Y-90831009D02*
X122914286Y-90926247D01*
X119461904Y-90692800D02*
X119557142Y-90645180D01*
X119557142Y-90645180D02*
X119747618Y-90645180D01*
X119747618Y-90645180D02*
X119842856Y-90692800D01*
X119842856Y-90692800D02*
X119890475Y-90740419D01*
X119890475Y-90740419D02*
X119938094Y-90835657D01*
X119938094Y-90835657D02*
X119938094Y-91121371D01*
X119938094Y-91121371D02*
X119890475Y-91216609D01*
X119890475Y-91216609D02*
X119842856Y-91264228D01*
X119842856Y-91264228D02*
X119747618Y-91311847D01*
X119747618Y-91311847D02*
X119557142Y-91311847D01*
X119557142Y-91311847D02*
X119461904Y-91264228D01*
X132857142Y-92454819D02*
X132523809Y-91978628D01*
X132285714Y-92454819D02*
X132285714Y-91454819D01*
X132285714Y-91454819D02*
X132666666Y-91454819D01*
X132666666Y-91454819D02*
X132761904Y-91502438D01*
X132761904Y-91502438D02*
X132809523Y-91550057D01*
X132809523Y-91550057D02*
X132857142Y-91645295D01*
X132857142Y-91645295D02*
X132857142Y-91788152D01*
X132857142Y-91788152D02*
X132809523Y-91883390D01*
X132809523Y-91883390D02*
X132761904Y-91931009D01*
X132761904Y-91931009D02*
X132666666Y-91978628D01*
X132666666Y-91978628D02*
X132285714Y-91978628D01*
X133809523Y-92454819D02*
X133238095Y-92454819D01*
X133523809Y-92454819D02*
X133523809Y-91454819D01*
X133523809Y-91454819D02*
X133428571Y-91597676D01*
X133428571Y-91597676D02*
X133333333Y-91692914D01*
X133333333Y-91692914D02*
X133238095Y-91740533D01*
X134666666Y-91788152D02*
X134666666Y-92454819D01*
X134428571Y-91407200D02*
X134190476Y-92121485D01*
X134190476Y-92121485D02*
X134809523Y-92121485D01*
X146357142Y-82154819D02*
X146023809Y-81678628D01*
X145785714Y-82154819D02*
X145785714Y-81154819D01*
X145785714Y-81154819D02*
X146166666Y-81154819D01*
X146166666Y-81154819D02*
X146261904Y-81202438D01*
X146261904Y-81202438D02*
X146309523Y-81250057D01*
X146309523Y-81250057D02*
X146357142Y-81345295D01*
X146357142Y-81345295D02*
X146357142Y-81488152D01*
X146357142Y-81488152D02*
X146309523Y-81583390D01*
X146309523Y-81583390D02*
X146261904Y-81631009D01*
X146261904Y-81631009D02*
X146166666Y-81678628D01*
X146166666Y-81678628D02*
X145785714Y-81678628D01*
X147309523Y-82154819D02*
X146738095Y-82154819D01*
X147023809Y-82154819D02*
X147023809Y-81154819D01*
X147023809Y-81154819D02*
X146928571Y-81297676D01*
X146928571Y-81297676D02*
X146833333Y-81392914D01*
X146833333Y-81392914D02*
X146738095Y-81440533D01*
X148261904Y-82154819D02*
X147690476Y-82154819D01*
X147976190Y-82154819D02*
X147976190Y-81154819D01*
X147976190Y-81154819D02*
X147880952Y-81297676D01*
X147880952Y-81297676D02*
X147785714Y-81392914D01*
X147785714Y-81392914D02*
X147690476Y-81440533D01*
X143228571Y-81954819D02*
X143228571Y-81288152D01*
X143228571Y-81478628D02*
X143276190Y-81383390D01*
X143276190Y-81383390D02*
X143323809Y-81335771D01*
X143323809Y-81335771D02*
X143419047Y-81288152D01*
X143419047Y-81288152D02*
X143514285Y-81288152D01*
X122658333Y-86459580D02*
X122610714Y-86507200D01*
X122610714Y-86507200D02*
X122467857Y-86554819D01*
X122467857Y-86554819D02*
X122372619Y-86554819D01*
X122372619Y-86554819D02*
X122229762Y-86507200D01*
X122229762Y-86507200D02*
X122134524Y-86411961D01*
X122134524Y-86411961D02*
X122086905Y-86316723D01*
X122086905Y-86316723D02*
X122039286Y-86126247D01*
X122039286Y-86126247D02*
X122039286Y-85983390D01*
X122039286Y-85983390D02*
X122086905Y-85792914D01*
X122086905Y-85792914D02*
X122134524Y-85697676D01*
X122134524Y-85697676D02*
X122229762Y-85602438D01*
X122229762Y-85602438D02*
X122372619Y-85554819D01*
X122372619Y-85554819D02*
X122467857Y-85554819D01*
X122467857Y-85554819D02*
X122610714Y-85602438D01*
X122610714Y-85602438D02*
X122658333Y-85650057D01*
X123563095Y-85554819D02*
X123086905Y-85554819D01*
X123086905Y-85554819D02*
X123039286Y-86031009D01*
X123039286Y-86031009D02*
X123086905Y-85983390D01*
X123086905Y-85983390D02*
X123182143Y-85935771D01*
X123182143Y-85935771D02*
X123420238Y-85935771D01*
X123420238Y-85935771D02*
X123515476Y-85983390D01*
X123515476Y-85983390D02*
X123563095Y-86031009D01*
X123563095Y-86031009D02*
X123610714Y-86126247D01*
X123610714Y-86126247D02*
X123610714Y-86364342D01*
X123610714Y-86364342D02*
X123563095Y-86459580D01*
X123563095Y-86459580D02*
X123515476Y-86507200D01*
X123515476Y-86507200D02*
X123420238Y-86554819D01*
X123420238Y-86554819D02*
X123182143Y-86554819D01*
X123182143Y-86554819D02*
X123086905Y-86507200D01*
X123086905Y-86507200D02*
X123039286Y-86459580D01*
X119524404Y-85592800D02*
X119619642Y-85545180D01*
X119619642Y-85545180D02*
X119810118Y-85545180D01*
X119810118Y-85545180D02*
X119905356Y-85592800D01*
X119905356Y-85592800D02*
X119952975Y-85640419D01*
X119952975Y-85640419D02*
X120000594Y-85735657D01*
X120000594Y-85735657D02*
X120000594Y-86021371D01*
X120000594Y-86021371D02*
X119952975Y-86116609D01*
X119952975Y-86116609D02*
X119905356Y-86164228D01*
X119905356Y-86164228D02*
X119810118Y-86211847D01*
X119810118Y-86211847D02*
X119619642Y-86211847D01*
X119619642Y-86211847D02*
X119524404Y-86164228D01*
X122683333Y-84004819D02*
X122350000Y-83528628D01*
X122111905Y-84004819D02*
X122111905Y-83004819D01*
X122111905Y-83004819D02*
X122492857Y-83004819D01*
X122492857Y-83004819D02*
X122588095Y-83052438D01*
X122588095Y-83052438D02*
X122635714Y-83100057D01*
X122635714Y-83100057D02*
X122683333Y-83195295D01*
X122683333Y-83195295D02*
X122683333Y-83338152D01*
X122683333Y-83338152D02*
X122635714Y-83433390D01*
X122635714Y-83433390D02*
X122588095Y-83481009D01*
X122588095Y-83481009D02*
X122492857Y-83528628D01*
X122492857Y-83528628D02*
X122111905Y-83528628D01*
X123016667Y-83004819D02*
X123635714Y-83004819D01*
X123635714Y-83004819D02*
X123302381Y-83385771D01*
X123302381Y-83385771D02*
X123445238Y-83385771D01*
X123445238Y-83385771D02*
X123540476Y-83433390D01*
X123540476Y-83433390D02*
X123588095Y-83481009D01*
X123588095Y-83481009D02*
X123635714Y-83576247D01*
X123635714Y-83576247D02*
X123635714Y-83814342D01*
X123635714Y-83814342D02*
X123588095Y-83909580D01*
X123588095Y-83909580D02*
X123540476Y-83957200D01*
X123540476Y-83957200D02*
X123445238Y-84004819D01*
X123445238Y-84004819D02*
X123159524Y-84004819D01*
X123159524Y-84004819D02*
X123064286Y-83957200D01*
X123064286Y-83957200D02*
X123016667Y-83909580D01*
X119871428Y-83245180D02*
X119871428Y-83911847D01*
X119871428Y-83721371D02*
X119823809Y-83816609D01*
X119823809Y-83816609D02*
X119776190Y-83864228D01*
X119776190Y-83864228D02*
X119680952Y-83911847D01*
X119680952Y-83911847D02*
X119585714Y-83911847D01*
X133833333Y-94954819D02*
X133500000Y-94478628D01*
X133261905Y-94954819D02*
X133261905Y-93954819D01*
X133261905Y-93954819D02*
X133642857Y-93954819D01*
X133642857Y-93954819D02*
X133738095Y-94002438D01*
X133738095Y-94002438D02*
X133785714Y-94050057D01*
X133785714Y-94050057D02*
X133833333Y-94145295D01*
X133833333Y-94145295D02*
X133833333Y-94288152D01*
X133833333Y-94288152D02*
X133785714Y-94383390D01*
X133785714Y-94383390D02*
X133738095Y-94431009D01*
X133738095Y-94431009D02*
X133642857Y-94478628D01*
X133642857Y-94478628D02*
X133261905Y-94478628D01*
X134166667Y-93954819D02*
X134833333Y-93954819D01*
X134833333Y-93954819D02*
X134404762Y-94954819D01*
X136633333Y-83154819D02*
X136300000Y-82678628D01*
X136061905Y-83154819D02*
X136061905Y-82154819D01*
X136061905Y-82154819D02*
X136442857Y-82154819D01*
X136442857Y-82154819D02*
X136538095Y-82202438D01*
X136538095Y-82202438D02*
X136585714Y-82250057D01*
X136585714Y-82250057D02*
X136633333Y-82345295D01*
X136633333Y-82345295D02*
X136633333Y-82488152D01*
X136633333Y-82488152D02*
X136585714Y-82583390D01*
X136585714Y-82583390D02*
X136538095Y-82631009D01*
X136538095Y-82631009D02*
X136442857Y-82678628D01*
X136442857Y-82678628D02*
X136061905Y-82678628D01*
X137109524Y-83154819D02*
X137300000Y-83154819D01*
X137300000Y-83154819D02*
X137395238Y-83107200D01*
X137395238Y-83107200D02*
X137442857Y-83059580D01*
X137442857Y-83059580D02*
X137538095Y-82916723D01*
X137538095Y-82916723D02*
X137585714Y-82726247D01*
X137585714Y-82726247D02*
X137585714Y-82345295D01*
X137585714Y-82345295D02*
X137538095Y-82250057D01*
X137538095Y-82250057D02*
X137490476Y-82202438D01*
X137490476Y-82202438D02*
X137395238Y-82154819D01*
X137395238Y-82154819D02*
X137204762Y-82154819D01*
X137204762Y-82154819D02*
X137109524Y-82202438D01*
X137109524Y-82202438D02*
X137061905Y-82250057D01*
X137061905Y-82250057D02*
X137014286Y-82345295D01*
X137014286Y-82345295D02*
X137014286Y-82583390D01*
X137014286Y-82583390D02*
X137061905Y-82678628D01*
X137061905Y-82678628D02*
X137109524Y-82726247D01*
X137109524Y-82726247D02*
X137204762Y-82773866D01*
X137204762Y-82773866D02*
X137395238Y-82773866D01*
X137395238Y-82773866D02*
X137490476Y-82726247D01*
X137490476Y-82726247D02*
X137538095Y-82678628D01*
X137538095Y-82678628D02*
X137585714Y-82583390D01*
X136628571Y-84654819D02*
X136628571Y-83988152D01*
X136628571Y-84178628D02*
X136676190Y-84083390D01*
X136676190Y-84083390D02*
X136723809Y-84035771D01*
X136723809Y-84035771D02*
X136819047Y-83988152D01*
X136819047Y-83988152D02*
X136914285Y-83988152D01*
X152157142Y-82654819D02*
X151823809Y-82178628D01*
X151585714Y-82654819D02*
X151585714Y-81654819D01*
X151585714Y-81654819D02*
X151966666Y-81654819D01*
X151966666Y-81654819D02*
X152061904Y-81702438D01*
X152061904Y-81702438D02*
X152109523Y-81750057D01*
X152109523Y-81750057D02*
X152157142Y-81845295D01*
X152157142Y-81845295D02*
X152157142Y-81988152D01*
X152157142Y-81988152D02*
X152109523Y-82083390D01*
X152109523Y-82083390D02*
X152061904Y-82131009D01*
X152061904Y-82131009D02*
X151966666Y-82178628D01*
X151966666Y-82178628D02*
X151585714Y-82178628D01*
X153109523Y-82654819D02*
X152538095Y-82654819D01*
X152823809Y-82654819D02*
X152823809Y-81654819D01*
X152823809Y-81654819D02*
X152728571Y-81797676D01*
X152728571Y-81797676D02*
X152633333Y-81892914D01*
X152633333Y-81892914D02*
X152538095Y-81940533D01*
X154014285Y-81654819D02*
X153538095Y-81654819D01*
X153538095Y-81654819D02*
X153490476Y-82131009D01*
X153490476Y-82131009D02*
X153538095Y-82083390D01*
X153538095Y-82083390D02*
X153633333Y-82035771D01*
X153633333Y-82035771D02*
X153871428Y-82035771D01*
X153871428Y-82035771D02*
X153966666Y-82083390D01*
X153966666Y-82083390D02*
X154014285Y-82131009D01*
X154014285Y-82131009D02*
X154061904Y-82226247D01*
X154061904Y-82226247D02*
X154061904Y-82464342D01*
X154061904Y-82464342D02*
X154014285Y-82559580D01*
X154014285Y-82559580D02*
X153966666Y-82607200D01*
X153966666Y-82607200D02*
X153871428Y-82654819D01*
X153871428Y-82654819D02*
X153633333Y-82654819D01*
X153633333Y-82654819D02*
X153538095Y-82607200D01*
X153538095Y-82607200D02*
X153490476Y-82559580D01*
D11*
X128065000Y-102997936D02*
X128065000Y-103452064D01*
X129535000Y-102997936D02*
X129535000Y-103452064D01*
X136572936Y-87465000D02*
X137027064Y-87465000D01*
X136572936Y-88935000D02*
X137027064Y-88935000D01*
X136572936Y-78665000D02*
X137027064Y-78665000D01*
X136572936Y-80135000D02*
X137027064Y-80135000D01*
X125765000Y-103001248D02*
X125765000Y-103523752D01*
X127235000Y-103001248D02*
X127235000Y-103523752D01*
X143172936Y-102665000D02*
X143627064Y-102665000D01*
X143172936Y-104135000D02*
X143627064Y-104135000D01*
X134800000Y-99840000D02*
X131350000Y-99840000D01*
X134800000Y-99840000D02*
X136750000Y-99840000D01*
X134800000Y-104960000D02*
X132850000Y-104960000D01*
X134800000Y-104960000D02*
X136750000Y-104960000D01*
X136572936Y-95965000D02*
X137027064Y-95965000D01*
X136572936Y-97435000D02*
X137027064Y-97435000D01*
X128065000Y-98801248D02*
X128065000Y-99323752D01*
X129535000Y-98801248D02*
X129535000Y-99323752D01*
X119927064Y-87965000D02*
X119472936Y-87965000D01*
X119927064Y-89435000D02*
X119472936Y-89435000D01*
X125665000Y-98797936D02*
X125665000Y-99252064D01*
X127135000Y-98797936D02*
X127135000Y-99252064D01*
X149290000Y-96527064D02*
X149290000Y-95072936D01*
X151110000Y-96527064D02*
X151110000Y-95072936D01*
X143172936Y-100365000D02*
X143627064Y-100365000D01*
X143172936Y-101835000D02*
X143627064Y-101835000D01*
D12*
X114150000Y-83310000D02*
X114150000Y-83560000D01*
X114150000Y-83560000D02*
X114150000Y-90810000D01*
X114150000Y-90810000D02*
X116650000Y-90810000D01*
X116650000Y-83310000D02*
X114150000Y-83310000D01*
X116650000Y-90810000D02*
X116650000Y-83310000D01*
D11*
X149290000Y-100222936D02*
X149290000Y-101677064D01*
X151110000Y-100222936D02*
X151110000Y-101677064D01*
X149290000Y-90027064D02*
X149290000Y-88572936D01*
X151110000Y-90027064D02*
X151110000Y-88572936D01*
X139676900Y-91907200D02*
X139676900Y-89957200D01*
X139676900Y-91907200D02*
X139676900Y-95357200D01*
X148546900Y-91907200D02*
X148546900Y-89957200D01*
X148546900Y-91907200D02*
X148546900Y-93857200D01*
X157220000Y-85140000D02*
X159980000Y-85140000D01*
X157220000Y-87790000D02*
X157220000Y-85140000D01*
X157220000Y-87790000D02*
X157220000Y-98060000D01*
X157220000Y-98060000D02*
X159980000Y-98060000D01*
X159980000Y-85270000D02*
X159980000Y-98060000D01*
X143172936Y-78765000D02*
X143627064Y-78765000D01*
X143172936Y-80235000D02*
X143627064Y-80235000D01*
X119961252Y-90265000D02*
X119438748Y-90265000D01*
X119961252Y-91735000D02*
X119438748Y-91735000D01*
X136572936Y-91165000D02*
X137027064Y-91165000D01*
X136572936Y-92635000D02*
X137027064Y-92635000D01*
X143172936Y-80865000D02*
X143627064Y-80865000D01*
X143172936Y-82335000D02*
X143627064Y-82335000D01*
X120023752Y-85165000D02*
X119501248Y-85165000D01*
X120023752Y-86635000D02*
X119501248Y-86635000D01*
X119927064Y-82865000D02*
X119472936Y-82865000D01*
X119927064Y-84335000D02*
X119472936Y-84335000D01*
X136572936Y-93565000D02*
X137027064Y-93565000D01*
X136572936Y-95035000D02*
X137027064Y-95035000D01*
X136572936Y-83565000D02*
X137027064Y-83565000D01*
X136572936Y-85035000D02*
X137027064Y-85035000D01*
X149290000Y-82977064D02*
X149290000Y-81522936D01*
X151110000Y-82977064D02*
X151110000Y-81522936D01*
%LPC*%
D13*
X126300000Y-79600000D03*
X131300000Y-79600000D03*
D14*
X128800000Y-102225000D03*
X128800000Y-104225000D03*
D15*
X135800000Y-88200000D03*
X137800000Y-88200000D03*
X135800000Y-79400000D03*
X137800000Y-79400000D03*
D13*
X140900000Y-103400000D03*
X145900000Y-103400000D03*
D16*
X126500000Y-102225000D03*
X126500000Y-104300000D03*
D15*
X142400000Y-103400000D03*
X144400000Y-103400000D03*
D17*
X132325000Y-100495000D03*
X132325000Y-101765000D03*
X132325000Y-103035000D03*
X132325000Y-104305000D03*
X137275000Y-104305000D03*
X137275000Y-103035000D03*
X137275000Y-101765000D03*
X137275000Y-100495000D03*
D15*
X135800000Y-96700000D03*
X137800000Y-96700000D03*
D16*
X128800000Y-98025000D03*
X128800000Y-100100000D03*
D18*
X120700000Y-88700000D03*
X118700000Y-88700000D03*
D13*
X131200000Y-84500000D03*
X126200000Y-84500000D03*
X141000000Y-84200000D03*
X146000000Y-84200000D03*
D14*
X126400000Y-98025000D03*
X126400000Y-100025000D03*
D13*
X131200000Y-94100000D03*
X126200000Y-94100000D03*
D19*
X150200000Y-97350000D03*
X150200000Y-94250000D03*
D15*
X142400000Y-101100000D03*
X144400000Y-101100000D03*
D20*
X115400000Y-84560000D03*
D21*
X115400000Y-87100000D03*
X115400000Y-89640000D03*
D22*
X150200000Y-99400000D03*
X150200000Y-102500000D03*
D19*
X150200000Y-90850000D03*
X150200000Y-87750000D03*
D23*
X140301900Y-94382200D03*
X141571900Y-94382200D03*
X142841900Y-94382200D03*
X144111900Y-94382200D03*
X145381900Y-94382200D03*
X146651900Y-94382200D03*
X147921900Y-94382200D03*
X147921900Y-89432200D03*
X146651900Y-89432200D03*
X145381900Y-89432200D03*
X144111900Y-89432200D03*
X142841900Y-89432200D03*
X141571900Y-89432200D03*
X140301900Y-89432200D03*
D20*
X158600000Y-86520000D03*
X158600000Y-89060000D03*
X158600000Y-91600000D03*
X158600000Y-94140000D03*
X158600000Y-96680000D03*
D15*
X142400000Y-79500000D03*
X144400000Y-79500000D03*
D13*
X140800000Y-79500000D03*
X145800000Y-79500000D03*
D24*
X120737500Y-91000000D03*
X118662500Y-91000000D03*
D15*
X135800000Y-91900000D03*
X137800000Y-91900000D03*
X142400000Y-81600000D03*
X144400000Y-81600000D03*
D24*
X120800000Y-85900000D03*
X118725000Y-85900000D03*
D13*
X131200000Y-89200000D03*
X126200000Y-89200000D03*
D25*
X120600000Y-99660000D03*
D21*
X120600000Y-102200000D03*
D18*
X120700000Y-83600000D03*
X118700000Y-83600000D03*
D13*
X145900000Y-99300000D03*
X140900000Y-99300000D03*
D15*
X135800000Y-94300000D03*
X137800000Y-94300000D03*
X135800000Y-84300000D03*
X137800000Y-84300000D03*
D19*
X150200000Y-83800000D03*
X150200000Y-80700000D03*
%LPD*%
M02*
