G04 #@! TF.GenerationSoftware,KiCad,Pcbnew,10.0.6*
G04 #@! TF.CreationDate,2026-09-30T16:45:43+05:30*
G04 #@! TF.ProjectId,sallenkey,73616c6c-656e-46b6-9579-2e6b69636164,rev?*
G04 #@! TF.SameCoordinates,Original*
G04 #@! TF.FileFunction,Copper,L1,Top*
G04 #@! TF.FilePolarity,Positive*
%FSLAX46Y46*%
G04 Gerber Fmt 4.6, Leading zero omitted, Abs format (unit mm)*
G04 Created by KiCad (PCBNEW 10.0.6) date 2026-09-30 16:45:43*
%MOMM*%
%LPD*%
G01*
G04 APERTURE LIST*
G04 Aperture macros list*
%AMRoundRect*
0 Rectangle with rounded corners*
0 $1 Rounding radius*
0 $2 $3 $4 $5 $6 $7 $8 $9 X,Y pos of 4 corners*
0 Add a 4 corners polygon primitive as box body*
4,1,4,$2,$3,$4,$5,$6,$7,$8,$9,$2,$3,0*
0 Add four circle primitives for the rounded corners*
1,1,$1+$1,$2,$3*
1,1,$1+$1,$4,$5*
1,1,$1+$1,$6,$7*
1,1,$1+$1,$8,$9*
0 Add four rect primitives between the rounded corners*
20,1,$1+$1,$2,$3,$4,$5,0*
20,1,$1+$1,$4,$5,$6,$7,0*
20,1,$1+$1,$6,$7,$8,$9,0*
20,1,$1+$1,$8,$9,$2,$3,0*%
G04 Aperture macros list end*
G04 #@! TA.AperFunction,ComponentPad*
%ADD10C,1.600000*%
G04 #@! TD*
G04 #@! TA.AperFunction,SMDPad,CuDef*
%ADD11RoundRect,0.250000X-0.450000X0.350000X-0.450000X-0.350000X0.450000X-0.350000X0.450000X0.350000X0*%
G04 #@! TD*
G04 #@! TA.AperFunction,SMDPad,CuDef*
%ADD12RoundRect,0.250000X-0.350000X-0.450000X0.350000X-0.450000X0.350000X0.450000X-0.350000X0.450000X0*%
G04 #@! TD*
G04 #@! TA.AperFunction,SMDPad,CuDef*
%ADD13RoundRect,0.250000X-0.475000X0.337500X-0.475000X-0.337500X0.475000X-0.337500X0.475000X0.337500X0*%
G04 #@! TD*
G04 #@! TA.AperFunction,SMDPad,CuDef*
%ADD14RoundRect,0.150000X-0.825000X-0.150000X0.825000X-0.150000X0.825000X0.150000X-0.825000X0.150000X0*%
G04 #@! TD*
G04 #@! TA.AperFunction,SMDPad,CuDef*
%ADD15RoundRect,0.250000X0.350000X0.450000X-0.350000X0.450000X-0.350000X-0.450000X0.350000X-0.450000X0*%
G04 #@! TD*
G04 #@! TA.AperFunction,SMDPad,CuDef*
%ADD16RoundRect,0.250000X0.625000X-0.400000X0.625000X0.400000X-0.625000X0.400000X-0.625000X-0.400000X0*%
G04 #@! TD*
G04 #@! TA.AperFunction,ComponentPad*
%ADD17C,1.700000*%
G04 #@! TD*
G04 #@! TA.AperFunction,ComponentPad*
%ADD18O,1.700000X1.700000*%
G04 #@! TD*
G04 #@! TA.AperFunction,SMDPad,CuDef*
%ADD19RoundRect,0.250000X-0.625000X0.400000X-0.625000X-0.400000X0.625000X-0.400000X0.625000X0.400000X0*%
G04 #@! TD*
G04 #@! TA.AperFunction,SMDPad,CuDef*
%ADD20RoundRect,0.150000X0.150000X-0.825000X0.150000X0.825000X-0.150000X0.825000X-0.150000X-0.825000X0*%
G04 #@! TD*
G04 #@! TA.AperFunction,SMDPad,CuDef*
%ADD21RoundRect,0.250000X0.337500X0.475000X-0.337500X0.475000X-0.337500X-0.475000X0.337500X-0.475000X0*%
G04 #@! TD*
G04 #@! TA.AperFunction,ComponentPad*
%ADD22R,1.700000X1.700000*%
G04 #@! TD*
G04 #@! TA.AperFunction,ViaPad*
%ADD23C,0.700000*%
G04 #@! TD*
G04 #@! TA.AperFunction,Conductor*
%ADD24C,0.800000*%
G04 #@! TD*
G04 #@! TA.AperFunction,Conductor*
%ADD25C,1.200000*%
G04 #@! TD*
G04 #@! TA.AperFunction,Conductor*
%ADD26C,0.600000*%
G04 #@! TD*
G04 #@! TA.AperFunction,Conductor*
%ADD27C,0.700000*%
G04 #@! TD*
G04 #@! TA.AperFunction,Conductor*
%ADD28C,0.400000*%
G04 #@! TD*
G04 APERTURE END LIST*
D10*
X126300000Y-79600000D03*
X131300000Y-79600000D03*
D11*
X128800000Y-102225000D03*
X128800000Y-104225000D03*
D12*
X135800000Y-88200000D03*
X137800000Y-88200000D03*
X135800000Y-79400000D03*
X137800000Y-79400000D03*
D10*
X140900000Y-103400000D03*
X145900000Y-103400000D03*
D13*
X126500000Y-102225000D03*
X126500000Y-104300000D03*
D12*
X142400000Y-103400000D03*
X144400000Y-103400000D03*
D14*
X132325000Y-100495000D03*
X132325000Y-101765000D03*
X132325000Y-103035000D03*
X132325000Y-104305000D03*
X137275000Y-104305000D03*
X137275000Y-103035000D03*
X137275000Y-101765000D03*
X137275000Y-100495000D03*
D12*
X135800000Y-96700000D03*
X137800000Y-96700000D03*
D13*
X128800000Y-98025000D03*
X128800000Y-100100000D03*
D15*
X120700000Y-88700000D03*
X118700000Y-88700000D03*
D10*
X131200000Y-84500000D03*
X126200000Y-84500000D03*
X141000000Y-84200000D03*
X146000000Y-84200000D03*
D11*
X126400000Y-98025000D03*
X126400000Y-100025000D03*
D10*
X131200000Y-94100000D03*
X126200000Y-94100000D03*
D16*
X150200000Y-97350000D03*
X150200000Y-94250000D03*
D12*
X142400000Y-101100000D03*
X144400000Y-101100000D03*
D17*
X115400000Y-84560000D03*
D18*
X115400000Y-87100000D03*
X115400000Y-89640000D03*
D19*
X150200000Y-99400000D03*
X150200000Y-102500000D03*
D16*
X150200000Y-90850000D03*
X150200000Y-87750000D03*
D20*
X140301900Y-94382200D03*
X141571900Y-94382200D03*
X142841900Y-94382200D03*
X144111900Y-94382200D03*
X145381900Y-94382200D03*
X146651900Y-94382200D03*
X147921900Y-94382200D03*
X147921900Y-89432200D03*
X146651900Y-89432200D03*
X145381900Y-89432200D03*
X144111900Y-89432200D03*
X142841900Y-89432200D03*
X141571900Y-89432200D03*
X140301900Y-89432200D03*
D17*
X158600000Y-86520000D03*
X158600000Y-89060000D03*
X158600000Y-91600000D03*
X158600000Y-94140000D03*
X158600000Y-96680000D03*
D12*
X142400000Y-79500000D03*
X144400000Y-79500000D03*
D10*
X140800000Y-79500000D03*
X145800000Y-79500000D03*
D21*
X120737500Y-91000000D03*
X118662500Y-91000000D03*
D12*
X135800000Y-91900000D03*
X137800000Y-91900000D03*
X142400000Y-81600000D03*
X144400000Y-81600000D03*
D21*
X120800000Y-85900000D03*
X118725000Y-85900000D03*
D10*
X131200000Y-89200000D03*
X126200000Y-89200000D03*
D22*
X120600000Y-99660000D03*
D18*
X120600000Y-102200000D03*
D15*
X120700000Y-83600000D03*
X118700000Y-83600000D03*
D10*
X145900000Y-99300000D03*
X140900000Y-99300000D03*
D12*
X135800000Y-94300000D03*
X137800000Y-94300000D03*
X135800000Y-84300000D03*
X137800000Y-84300000D03*
D16*
X150200000Y-83800000D03*
X150200000Y-80700000D03*
D23*
X137750000Y-101750000D03*
X136750000Y-101765000D03*
X142500000Y-87000000D03*
X142500000Y-96500000D03*
X150200000Y-99400000D03*
X150200000Y-83800000D03*
X136500000Y-98500000D03*
X128800000Y-100100000D03*
X128800000Y-98025000D03*
X126400000Y-97925000D03*
X144100000Y-94750000D03*
X144100000Y-94000000D03*
X118500000Y-83900000D03*
X132500000Y-104300000D03*
X128800000Y-104225000D03*
X118400000Y-90600000D03*
X144100000Y-90100000D03*
X144111900Y-88900000D03*
X119000000Y-83300000D03*
X126500000Y-104300000D03*
X131700000Y-104300000D03*
X118900000Y-91400000D03*
X120700000Y-83600000D03*
X120800000Y-85900000D03*
X120700000Y-90800000D03*
X120700000Y-88700000D03*
X132325000Y-99700000D03*
X132325000Y-100495000D03*
X135800000Y-87800000D03*
X135800000Y-91500000D03*
X135800000Y-92200000D03*
X135800000Y-88500000D03*
X149700000Y-80700000D03*
X150700000Y-80700000D03*
X149700000Y-102200000D03*
X150700000Y-102200000D03*
X150700000Y-94400000D03*
X149700000Y-94400000D03*
X150700000Y-87700000D03*
X149700000Y-87700000D03*
X137250000Y-98500000D03*
D24*
X132325000Y-101765000D02*
X132325000Y-99700000D01*
X137275000Y-103035000D02*
X137275000Y-101765000D01*
D25*
X128800000Y-98025000D02*
X126400000Y-98025000D01*
X133975000Y-98025000D02*
X134450000Y-98500000D01*
X134450000Y-98500000D02*
X137250000Y-98500000D01*
D26*
X118700000Y-88700000D02*
X118700000Y-90962500D01*
X118700000Y-90962500D02*
X118662500Y-91000000D01*
X118725000Y-85900000D02*
X118725000Y-83625000D01*
X118725000Y-83625000D02*
X118700000Y-83600000D01*
X141571900Y-87928100D02*
X142500000Y-87000000D01*
X141571900Y-89432200D02*
X141571900Y-87928100D01*
X141571900Y-95571900D02*
X142500000Y-96500000D01*
X141571900Y-94382200D02*
X141571900Y-95571900D01*
D27*
X137275000Y-100495000D02*
X137275000Y-98525000D01*
D26*
X137275000Y-98525000D02*
X137250000Y-98500000D01*
X137275000Y-103035000D02*
X137275000Y-103000000D01*
X132325000Y-103035000D02*
X133785000Y-103035000D01*
X133785000Y-103035000D02*
X135055000Y-104305000D01*
X135055000Y-104305000D02*
X137275000Y-104305000D01*
X128800000Y-102225000D02*
X129975000Y-102225000D01*
X129975000Y-102225000D02*
X130785000Y-103035000D01*
X130785000Y-103035000D02*
X132325000Y-103035000D01*
X126500000Y-102225000D02*
X128800000Y-102225000D01*
X126400000Y-100025000D02*
X126400000Y-102125000D01*
X126400000Y-102125000D02*
X126500000Y-102225000D01*
X126200000Y-94100000D02*
X128100000Y-94100000D01*
X128100000Y-94100000D02*
X130000000Y-96000000D01*
X130000000Y-96000000D02*
X135100000Y-96000000D01*
X135100000Y-96000000D02*
X135800000Y-96700000D01*
X126200000Y-79600000D02*
X128050000Y-77750000D01*
X128050000Y-77750000D02*
X134150000Y-77750000D01*
X134150000Y-77750000D02*
X135800000Y-79400000D01*
X134500000Y-86500000D02*
X137000000Y-86500000D01*
X132400000Y-84400000D02*
X134500000Y-86500000D01*
X131200000Y-84400000D02*
X132400000Y-84400000D01*
X137000000Y-86500000D02*
X137800000Y-87300000D01*
X137800000Y-87300000D02*
X137800000Y-88200000D01*
X131200000Y-89200000D02*
X133700000Y-89200000D01*
X133700000Y-89200000D02*
X134500000Y-90000000D01*
X134500000Y-90000000D02*
X137000000Y-90000000D01*
X137000000Y-90000000D02*
X137800000Y-90800000D01*
X137800000Y-90800000D02*
X137800000Y-91900000D01*
X137800000Y-91900000D02*
X138700000Y-91900000D01*
X138700000Y-91900000D02*
X139100000Y-92300000D01*
X142841900Y-89432200D02*
X142841900Y-90407199D01*
X142841900Y-90407199D02*
X141799099Y-91450000D01*
X141799099Y-91450000D02*
X139950000Y-91450000D01*
X139950000Y-91450000D02*
X137800000Y-89300000D01*
X137800000Y-89300000D02*
X137800000Y-88200000D01*
X131200000Y-79600000D02*
X131200000Y-79700000D01*
X131200000Y-79700000D02*
X135800000Y-84300000D01*
X126200000Y-84400000D02*
X131000000Y-79600000D01*
X131000000Y-79600000D02*
X131200000Y-79600000D01*
X126200000Y-89200000D02*
X131100000Y-94100000D01*
X131100000Y-94100000D02*
X131200000Y-94100000D01*
X135800000Y-94300000D02*
X131400000Y-94300000D01*
X131400000Y-94300000D02*
X131200000Y-94100000D01*
X140301900Y-94382200D02*
X137882200Y-94382200D01*
X137882200Y-94382200D02*
X137800000Y-94300000D01*
X139000000Y-86500000D02*
X140000000Y-86500000D01*
X140301900Y-86801900D02*
X140301900Y-89432200D01*
X137800000Y-84300000D02*
X137800000Y-85300000D01*
X137800000Y-85300000D02*
X139000000Y-86500000D01*
X140000000Y-86500000D02*
X140301900Y-86801900D01*
X140900000Y-99300000D02*
X140900000Y-99600000D01*
X140900000Y-99600000D02*
X142400000Y-101100000D01*
X140900000Y-99300000D02*
X140400000Y-99300000D01*
X140400000Y-99300000D02*
X137800000Y-96700000D01*
X142400000Y-103400000D02*
X140900000Y-103400000D01*
X144400000Y-103400000D02*
X145900000Y-103400000D01*
X144400000Y-101100000D02*
X144400000Y-103400000D01*
X145381900Y-94382200D02*
X145381900Y-97118100D01*
X145381900Y-97118100D02*
X144000000Y-98500000D01*
X144000000Y-98500000D02*
X144000000Y-100700000D01*
X144000000Y-100700000D02*
X144400000Y-101100000D01*
X146651900Y-94382200D02*
X146651900Y-98548100D01*
X146651900Y-98548100D02*
X145900000Y-99300000D01*
X147921900Y-94382200D02*
X147921900Y-95071900D01*
X147921900Y-95071900D02*
X150200000Y-97350000D01*
X147921900Y-89432200D02*
X148782200Y-89432200D01*
X148782200Y-89432200D02*
X150200000Y-90850000D01*
X147921900Y-89432200D02*
X146651900Y-89432200D01*
X145381900Y-89432200D02*
X145381900Y-86881900D01*
X145381900Y-86881900D02*
X144000000Y-85500000D01*
X144000000Y-85500000D02*
X144000000Y-83500000D01*
X144000000Y-83500000D02*
X144400000Y-83100000D01*
X144400000Y-83100000D02*
X144400000Y-81600000D01*
X139100000Y-81600000D02*
X141000000Y-81600000D01*
X140900000Y-84200000D02*
X140900000Y-81700000D01*
X140900000Y-81700000D02*
X141000000Y-81600000D01*
X137800000Y-79400000D02*
X137800000Y-80300000D01*
X137800000Y-80300000D02*
X139100000Y-81600000D01*
X141000000Y-81600000D02*
X142400000Y-81600000D01*
X142400000Y-79500000D02*
X140900000Y-79500000D01*
X144400000Y-79500000D02*
X145900000Y-79500000D01*
X144400000Y-81600000D02*
X144400000Y-79500000D01*
X146651900Y-89432200D02*
X146651900Y-84951900D01*
X146651900Y-84951900D02*
X145900000Y-84200000D01*
D28*
X144111900Y-94883800D02*
X144111900Y-94382200D01*
D26*
X142400000Y-92300000D02*
X139100000Y-92300000D01*
X142841900Y-92741900D02*
X142400000Y-92300000D01*
X142841900Y-94382200D02*
X142841900Y-92741900D01*
X141571900Y-89432200D02*
X140301900Y-89432200D01*
X146651900Y-94382200D02*
X147000000Y-94382200D01*
X147000000Y-94382200D02*
X147921900Y-94382200D01*
X141571900Y-94382200D02*
X140301900Y-94382200D01*
D25*
X128800000Y-98025000D02*
X133975000Y-98025000D01*
M02*
