G04 #@! TF.GenerationSoftware,KiCad,Pcbnew,10.0.6*
G04 #@! TF.CreationDate,2026-09-30T16:45:43+05:30*
G04 #@! TF.ProjectId,sallenkey,73616c6c-656e-46b6-9579-2e6b69636164,rev?*
G04 #@! TF.SameCoordinates,Original*
G04 #@! TF.FileFunction,Paste,Top*
G04 #@! TF.FilePolarity,Positive*
%FSLAX46Y46*%
G04 Gerber Fmt 4.6, Leading zero omitted, Abs format (unit mm)*
G04 Created by KiCad (PCBNEW 10.0.6) date 2026-09-30 16:45:43*
%MOMM*%
%LPD*%
G01*
G04 APERTURE LIST*
G04 Aperture macros list*
%AMRoundRect*
0 Rectangle with rounded corners*
0 $1 Rounding radius*
0 $2 $3 $4 $5 $6 $7 $8 $9 X,Y pos of 4 corners*
0 Add a 4 corners polygon primitive as box body*
4,1,4,$2,$3,$4,$5,$6,$7,$8,$9,$2,$3,0*
0 Add four circle primitives for the rounded corners*
1,1,$1+$1,$2,$3*
1,1,$1+$1,$4,$5*
1,1,$1+$1,$6,$7*
1,1,$1+$1,$8,$9*
0 Add four rect primitives between the rounded corners*
20,1,$1+$1,$2,$3,$4,$5,0*
20,1,$1+$1,$4,$5,$6,$7,0*
20,1,$1+$1,$6,$7,$8,$9,0*
20,1,$1+$1,$8,$9,$2,$3,0*%
G04 Aperture macros list end*
%ADD10RoundRect,0.250000X-0.450000X0.350000X-0.450000X-0.350000X0.450000X-0.350000X0.450000X0.350000X0*%
%ADD11RoundRect,0.250000X-0.350000X-0.450000X0.350000X-0.450000X0.350000X0.450000X-0.350000X0.450000X0*%
%ADD12RoundRect,0.250000X-0.475000X0.337500X-0.475000X-0.337500X0.475000X-0.337500X0.475000X0.337500X0*%
%ADD13RoundRect,0.150000X-0.825000X-0.150000X0.825000X-0.150000X0.825000X0.150000X-0.825000X0.150000X0*%
%ADD14RoundRect,0.250000X0.350000X0.450000X-0.350000X0.450000X-0.350000X-0.450000X0.350000X-0.450000X0*%
%ADD15RoundRect,0.250000X0.625000X-0.400000X0.625000X0.400000X-0.625000X0.400000X-0.625000X-0.400000X0*%
%ADD16RoundRect,0.250000X-0.625000X0.400000X-0.625000X-0.400000X0.625000X-0.400000X0.625000X0.400000X0*%
%ADD17RoundRect,0.150000X0.150000X-0.825000X0.150000X0.825000X-0.150000X0.825000X-0.150000X-0.825000X0*%
%ADD18RoundRect,0.250000X0.337500X0.475000X-0.337500X0.475000X-0.337500X-0.475000X0.337500X-0.475000X0*%
G04 APERTURE END LIST*
D10*
X128800000Y-102225000D03*
X128800000Y-104225000D03*
D11*
X135800000Y-88200000D03*
X137800000Y-88200000D03*
X135800000Y-79400000D03*
X137800000Y-79400000D03*
D12*
X126500000Y-102225000D03*
X126500000Y-104300000D03*
D11*
X142400000Y-103400000D03*
X144400000Y-103400000D03*
D13*
X132325000Y-100495000D03*
X132325000Y-101765000D03*
X132325000Y-103035000D03*
X132325000Y-104305000D03*
X137275000Y-104305000D03*
X137275000Y-103035000D03*
X137275000Y-101765000D03*
X137275000Y-100495000D03*
D11*
X135800000Y-96700000D03*
X137800000Y-96700000D03*
D12*
X128800000Y-98025000D03*
X128800000Y-100100000D03*
D14*
X120700000Y-88700000D03*
X118700000Y-88700000D03*
D10*
X126400000Y-98025000D03*
X126400000Y-100025000D03*
D15*
X150200000Y-97350000D03*
X150200000Y-94250000D03*
D11*
X142400000Y-101100000D03*
X144400000Y-101100000D03*
D16*
X150200000Y-99400000D03*
X150200000Y-102500000D03*
D15*
X150200000Y-90850000D03*
X150200000Y-87750000D03*
D17*
X140301900Y-94382200D03*
X141571900Y-94382200D03*
X142841900Y-94382200D03*
X144111900Y-94382200D03*
X145381900Y-94382200D03*
X146651900Y-94382200D03*
X147921900Y-94382200D03*
X147921900Y-89432200D03*
X146651900Y-89432200D03*
X145381900Y-89432200D03*
X144111900Y-89432200D03*
X142841900Y-89432200D03*
X141571900Y-89432200D03*
X140301900Y-89432200D03*
D11*
X142400000Y-79500000D03*
X144400000Y-79500000D03*
D18*
X120737500Y-91000000D03*
X118662500Y-91000000D03*
D11*
X135800000Y-91900000D03*
X137800000Y-91900000D03*
X142400000Y-81600000D03*
X144400000Y-81600000D03*
D18*
X120800000Y-85900000D03*
X118725000Y-85900000D03*
D14*
X120700000Y-83600000D03*
X118700000Y-83600000D03*
D11*
X135800000Y-94300000D03*
X137800000Y-94300000D03*
X135800000Y-84300000D03*
X137800000Y-84300000D03*
D15*
X150200000Y-83800000D03*
X150200000Y-80700000D03*
M02*
