%TF.GenerationSoftware,KiCad,Pcbnew,10.0.6*%
%TF.CreationDate,2026-09-30T16:45:46+05:30*%
%TF.ProjectId,sallenkey,73616c6c-656e-46b6-9579-2e6b69636164,rev?*%
%TF.SameCoordinates,Original*%
%TF.FileFunction,Drillmap*%
%TF.FilePolarity,Positive*%
%FSLAX45Y45*%
G04 Gerber Fmt 4.5, Leading zero omitted, Abs format (unit mm)*
G04 Created by KiCad (PCBNEW 10.0.6) date 2026-09-30 16:45:46*
%MOMM*%
%LPD*%
G01*
G04 APERTURE LIST*
%ADD10C,0.100000*%
%ADD11C,0.200000*%
G04 APERTURE END LIST*
D10*
X11370000Y-7680000D02*
X11370000Y-10570000D01*
X16030000Y-10570000D02*
X16030000Y-7680000D01*
X16030000Y-7680000D02*
X11370000Y-7680000D01*
X11370000Y-10570000D02*
X16030000Y-10570000D01*
D11*
D10*
X11820000Y-9040000D02*
X11860000Y-9080000D01*
X11860000Y-9040000D02*
X11820000Y-9080000D01*
X11830000Y-8370000D02*
X11870000Y-8410000D01*
X11870000Y-8370000D02*
X11830000Y-8410000D01*
X11870000Y-9120000D02*
X11910000Y-9160000D01*
X11910000Y-9120000D02*
X11870000Y-9160000D01*
X11880000Y-8310000D02*
X11920000Y-8350000D01*
X11920000Y-8310000D02*
X11880000Y-8350000D01*
X12050000Y-8340000D02*
X12090000Y-8380000D01*
X12090000Y-8340000D02*
X12050000Y-8380000D01*
X12050000Y-8850000D02*
X12090000Y-8890000D01*
X12090000Y-8850000D02*
X12050000Y-8890000D01*
X12050000Y-9060000D02*
X12090000Y-9100000D01*
X12090000Y-9060000D02*
X12050000Y-9100000D01*
X12060000Y-8570000D02*
X12100000Y-8610000D01*
X12100000Y-8570000D02*
X12060000Y-8610000D01*
X12620000Y-9772500D02*
X12660000Y-9812500D01*
X12660000Y-9772500D02*
X12620000Y-9812500D01*
X12630000Y-10410000D02*
X12670000Y-10450000D01*
X12670000Y-10410000D02*
X12630000Y-10450000D01*
X12860000Y-9782500D02*
X12900000Y-9822500D01*
X12900000Y-9782500D02*
X12860000Y-9822500D01*
X12860000Y-9990000D02*
X12900000Y-10030000D01*
X12900000Y-9990000D02*
X12860000Y-10030000D01*
X12860000Y-10402500D02*
X12900000Y-10442500D01*
X12900000Y-10402500D02*
X12860000Y-10442500D01*
X13150000Y-10410000D02*
X13190000Y-10450000D01*
X13190000Y-10410000D02*
X13150000Y-10450000D01*
X13212500Y-9950000D02*
X13252500Y-9990000D01*
X13252500Y-9950000D02*
X13212500Y-9990000D01*
X13212500Y-10029500D02*
X13252500Y-10069500D01*
X13252500Y-10029500D02*
X13212500Y-10069500D01*
X13230000Y-10410000D02*
X13270000Y-10450000D01*
X13270000Y-10410000D02*
X13230000Y-10450000D01*
X13560000Y-8760000D02*
X13600000Y-8800000D01*
X13600000Y-8760000D02*
X13560000Y-8800000D01*
X13560000Y-8830000D02*
X13600000Y-8870000D01*
X13600000Y-8830000D02*
X13560000Y-8870000D01*
X13560000Y-9130000D02*
X13600000Y-9170000D01*
X13600000Y-9130000D02*
X13560000Y-9170000D01*
X13560000Y-9200000D02*
X13600000Y-9240000D01*
X13600000Y-9200000D02*
X13560000Y-9240000D01*
X13630000Y-9830000D02*
X13670000Y-9870000D01*
X13670000Y-9830000D02*
X13630000Y-9870000D01*
X13655000Y-10156500D02*
X13695000Y-10196500D01*
X13695000Y-10156500D02*
X13655000Y-10196500D01*
X13705000Y-9830000D02*
X13745000Y-9870000D01*
X13745000Y-9830000D02*
X13705000Y-9870000D01*
X13755000Y-10155000D02*
X13795000Y-10195000D01*
X13795000Y-10155000D02*
X13755000Y-10195000D01*
X14230000Y-8680000D02*
X14270000Y-8720000D01*
X14270000Y-8680000D02*
X14230000Y-8720000D01*
X14230000Y-9630000D02*
X14270000Y-9670000D01*
X14270000Y-9630000D02*
X14230000Y-9670000D01*
X14390000Y-8990000D02*
X14430000Y-9030000D01*
X14430000Y-8990000D02*
X14390000Y-9030000D01*
X14390000Y-9380000D02*
X14430000Y-9420000D01*
X14430000Y-9380000D02*
X14390000Y-9420000D01*
X14390000Y-9455000D02*
X14430000Y-9495000D01*
X14430000Y-9455000D02*
X14390000Y-9495000D01*
X14391190Y-8870000D02*
X14431190Y-8910000D01*
X14431190Y-8870000D02*
X14391190Y-8910000D01*
X14950000Y-8050000D02*
X14990000Y-8090000D01*
X14990000Y-8050000D02*
X14950000Y-8090000D01*
X14950000Y-8750000D02*
X14990000Y-8790000D01*
X14990000Y-8750000D02*
X14950000Y-8790000D01*
X14950000Y-9420000D02*
X14990000Y-9460000D01*
X14990000Y-9420000D02*
X14950000Y-9460000D01*
X14950000Y-10200000D02*
X14990000Y-10240000D01*
X14990000Y-10200000D02*
X14950000Y-10240000D01*
X15000000Y-8360000D02*
X15040000Y-8400000D01*
X15040000Y-8360000D02*
X15000000Y-8400000D01*
X15000000Y-9920000D02*
X15040000Y-9960000D01*
X15040000Y-9920000D02*
X15000000Y-9960000D01*
X15050000Y-8050000D02*
X15090000Y-8090000D01*
X15090000Y-8050000D02*
X15050000Y-8090000D01*
X15050000Y-8750000D02*
X15090000Y-8790000D01*
X15090000Y-8750000D02*
X15050000Y-8790000D01*
X15050000Y-9420000D02*
X15090000Y-9460000D01*
X15090000Y-9420000D02*
X15050000Y-9460000D01*
X15050000Y-10200000D02*
X15090000Y-10240000D01*
X15090000Y-10200000D02*
X15050000Y-10240000D01*
X12660000Y-8450000D02*
G75*
G02*
X12580000Y-8450000I-40000J0D01*
G01*
X12580000Y-8450000D02*
G75*
G02*
X12660000Y-8450000I40000J0D01*
G01*
X12660000Y-8920000D02*
G75*
G02*
X12580000Y-8920000I-40000J0D01*
G01*
X12580000Y-8920000D02*
G75*
G02*
X12660000Y-8920000I40000J0D01*
G01*
X12660000Y-9410000D02*
G75*
G02*
X12580000Y-9410000I-40000J0D01*
G01*
X12580000Y-9410000D02*
G75*
G02*
X12660000Y-9410000I40000J0D01*
G01*
X12670000Y-7960000D02*
G75*
G02*
X12590000Y-7960000I-40000J0D01*
G01*
X12590000Y-7960000D02*
G75*
G02*
X12670000Y-7960000I40000J0D01*
G01*
X13160000Y-8450000D02*
G75*
G02*
X13080000Y-8450000I-40000J0D01*
G01*
X13080000Y-8450000D02*
G75*
G02*
X13160000Y-8450000I40000J0D01*
G01*
X13160000Y-8920000D02*
G75*
G02*
X13080000Y-8920000I-40000J0D01*
G01*
X13080000Y-8920000D02*
G75*
G02*
X13160000Y-8920000I40000J0D01*
G01*
X13160000Y-9410000D02*
G75*
G02*
X13080000Y-9410000I-40000J0D01*
G01*
X13080000Y-9410000D02*
G75*
G02*
X13160000Y-9410000I40000J0D01*
G01*
X13170000Y-7960000D02*
G75*
G02*
X13090000Y-7960000I-40000J0D01*
G01*
X13090000Y-7960000D02*
G75*
G02*
X13170000Y-7960000I40000J0D01*
G01*
X14120000Y-7950000D02*
G75*
G02*
X14040000Y-7950000I-40000J0D01*
G01*
X14040000Y-7950000D02*
G75*
G02*
X14120000Y-7950000I40000J0D01*
G01*
X14130000Y-9930000D02*
G75*
G02*
X14050000Y-9930000I-40000J0D01*
G01*
X14050000Y-9930000D02*
G75*
G02*
X14130000Y-9930000I40000J0D01*
G01*
X14130000Y-10340000D02*
G75*
G02*
X14050000Y-10340000I-40000J0D01*
G01*
X14050000Y-10340000D02*
G75*
G02*
X14130000Y-10340000I40000J0D01*
G01*
X14140000Y-8420000D02*
G75*
G02*
X14060000Y-8420000I-40000J0D01*
G01*
X14060000Y-8420000D02*
G75*
G02*
X14140000Y-8420000I40000J0D01*
G01*
X14620000Y-7950000D02*
G75*
G02*
X14540000Y-7950000I-40000J0D01*
G01*
X14540000Y-7950000D02*
G75*
G02*
X14620000Y-7950000I40000J0D01*
G01*
X14630000Y-9930000D02*
G75*
G02*
X14550000Y-9930000I-40000J0D01*
G01*
X14550000Y-9930000D02*
G75*
G02*
X14630000Y-9930000I40000J0D01*
G01*
X14630000Y-10340000D02*
G75*
G02*
X14550000Y-10340000I-40000J0D01*
G01*
X14550000Y-10340000D02*
G75*
G02*
X14630000Y-10340000I40000J0D01*
G01*
X14640000Y-8420000D02*
G75*
G02*
X14560000Y-8420000I-40000J0D01*
G01*
X14560000Y-8420000D02*
G75*
G02*
X14640000Y-8420000I40000J0D01*
G01*
X11540000Y-8406000D02*
X11540000Y-8506000D01*
X11490000Y-8456000D02*
X11590000Y-8456000D01*
X11540000Y-8660000D02*
X11540000Y-8760000D01*
X11490000Y-8710000D02*
X11590000Y-8710000D01*
X11540000Y-8914000D02*
X11540000Y-9014000D01*
X11490000Y-8964000D02*
X11590000Y-8964000D01*
X12060000Y-9916000D02*
X12060000Y-10016000D01*
X12010000Y-9966000D02*
X12110000Y-9966000D01*
X12060000Y-10170000D02*
X12060000Y-10270000D01*
X12010000Y-10220000D02*
X12110000Y-10220000D01*
X15860000Y-8602000D02*
X15860000Y-8702000D01*
X15810000Y-8652000D02*
X15910000Y-8652000D01*
X15860000Y-8856000D02*
X15860000Y-8956000D01*
X15810000Y-8906000D02*
X15910000Y-8906000D01*
X15860000Y-9110000D02*
X15860000Y-9210000D01*
X15810000Y-9160000D02*
X15910000Y-9160000D01*
X15860000Y-9364000D02*
X15860000Y-9464000D01*
X15810000Y-9414000D02*
X15910000Y-9414000D01*
X15860000Y-9618000D02*
X15860000Y-9718000D01*
X15810000Y-9668000D02*
X15910000Y-9668000D01*
D11*
X11625777Y-10886484D02*
X11625777Y-10686484D01*
X11625777Y-10686484D02*
X11673396Y-10686484D01*
X11673396Y-10686484D02*
X11701967Y-10696008D01*
X11701967Y-10696008D02*
X11721015Y-10715055D01*
X11721015Y-10715055D02*
X11730539Y-10734103D01*
X11730539Y-10734103D02*
X11740062Y-10772198D01*
X11740062Y-10772198D02*
X11740062Y-10800770D01*
X11740062Y-10800770D02*
X11730539Y-10838865D01*
X11730539Y-10838865D02*
X11721015Y-10857912D01*
X11721015Y-10857912D02*
X11701967Y-10876960D01*
X11701967Y-10876960D02*
X11673396Y-10886484D01*
X11673396Y-10886484D02*
X11625777Y-10886484D01*
X11825777Y-10886484D02*
X11825777Y-10753150D01*
X11825777Y-10791246D02*
X11835301Y-10772198D01*
X11835301Y-10772198D02*
X11844824Y-10762674D01*
X11844824Y-10762674D02*
X11863872Y-10753150D01*
X11863872Y-10753150D02*
X11882920Y-10753150D01*
X11949586Y-10886484D02*
X11949586Y-10753150D01*
X11949586Y-10686484D02*
X11940062Y-10696008D01*
X11940062Y-10696008D02*
X11949586Y-10705531D01*
X11949586Y-10705531D02*
X11959110Y-10696008D01*
X11959110Y-10696008D02*
X11949586Y-10686484D01*
X11949586Y-10686484D02*
X11949586Y-10705531D01*
X12073396Y-10886484D02*
X12054348Y-10876960D01*
X12054348Y-10876960D02*
X12044824Y-10857912D01*
X12044824Y-10857912D02*
X12044824Y-10686484D01*
X12178158Y-10886484D02*
X12159110Y-10876960D01*
X12159110Y-10876960D02*
X12149586Y-10857912D01*
X12149586Y-10857912D02*
X12149586Y-10686484D01*
X12406729Y-10886484D02*
X12406729Y-10686484D01*
X12406729Y-10686484D02*
X12473396Y-10829341D01*
X12473396Y-10829341D02*
X12540062Y-10686484D01*
X12540062Y-10686484D02*
X12540062Y-10886484D01*
X12721015Y-10886484D02*
X12721015Y-10781722D01*
X12721015Y-10781722D02*
X12711491Y-10762674D01*
X12711491Y-10762674D02*
X12692443Y-10753150D01*
X12692443Y-10753150D02*
X12654348Y-10753150D01*
X12654348Y-10753150D02*
X12635301Y-10762674D01*
X12721015Y-10876960D02*
X12701967Y-10886484D01*
X12701967Y-10886484D02*
X12654348Y-10886484D01*
X12654348Y-10886484D02*
X12635301Y-10876960D01*
X12635301Y-10876960D02*
X12625777Y-10857912D01*
X12625777Y-10857912D02*
X12625777Y-10838865D01*
X12625777Y-10838865D02*
X12635301Y-10819817D01*
X12635301Y-10819817D02*
X12654348Y-10810293D01*
X12654348Y-10810293D02*
X12701967Y-10810293D01*
X12701967Y-10810293D02*
X12721015Y-10800770D01*
X12816253Y-10753150D02*
X12816253Y-10953150D01*
X12816253Y-10762674D02*
X12835301Y-10753150D01*
X12835301Y-10753150D02*
X12873396Y-10753150D01*
X12873396Y-10753150D02*
X12892443Y-10762674D01*
X12892443Y-10762674D02*
X12901967Y-10772198D01*
X12901967Y-10772198D02*
X12911491Y-10791246D01*
X12911491Y-10791246D02*
X12911491Y-10848389D01*
X12911491Y-10848389D02*
X12901967Y-10867436D01*
X12901967Y-10867436D02*
X12892443Y-10876960D01*
X12892443Y-10876960D02*
X12873396Y-10886484D01*
X12873396Y-10886484D02*
X12835301Y-10886484D01*
X12835301Y-10886484D02*
X12816253Y-10876960D01*
X12997205Y-10867436D02*
X13006729Y-10876960D01*
X13006729Y-10876960D02*
X12997205Y-10886484D01*
X12997205Y-10886484D02*
X12987682Y-10876960D01*
X12987682Y-10876960D02*
X12997205Y-10867436D01*
X12997205Y-10867436D02*
X12997205Y-10886484D01*
X12997205Y-10762674D02*
X13006729Y-10772198D01*
X13006729Y-10772198D02*
X12997205Y-10781722D01*
X12997205Y-10781722D02*
X12987682Y-10772198D01*
X12987682Y-10772198D02*
X12997205Y-10762674D01*
X12997205Y-10762674D02*
X12997205Y-10781722D01*
D10*
X11325000Y-11195000D02*
X11365000Y-11235000D01*
X11365000Y-11195000D02*
X11325000Y-11235000D01*
D11*
X11663872Y-11106484D02*
X11682920Y-11106484D01*
X11682920Y-11106484D02*
X11701967Y-11116008D01*
X11701967Y-11116008D02*
X11711491Y-11125531D01*
X11711491Y-11125531D02*
X11721015Y-11144579D01*
X11721015Y-11144579D02*
X11730539Y-11182674D01*
X11730539Y-11182674D02*
X11730539Y-11230293D01*
X11730539Y-11230293D02*
X11721015Y-11268388D01*
X11721015Y-11268388D02*
X11711491Y-11287436D01*
X11711491Y-11287436D02*
X11701967Y-11296960D01*
X11701967Y-11296960D02*
X11682920Y-11306484D01*
X11682920Y-11306484D02*
X11663872Y-11306484D01*
X11663872Y-11306484D02*
X11644824Y-11296960D01*
X11644824Y-11296960D02*
X11635301Y-11287436D01*
X11635301Y-11287436D02*
X11625777Y-11268388D01*
X11625777Y-11268388D02*
X11616253Y-11230293D01*
X11616253Y-11230293D02*
X11616253Y-11182674D01*
X11616253Y-11182674D02*
X11625777Y-11144579D01*
X11625777Y-11144579D02*
X11635301Y-11125531D01*
X11635301Y-11125531D02*
X11644824Y-11116008D01*
X11644824Y-11116008D02*
X11663872Y-11106484D01*
X11816253Y-11287436D02*
X11825777Y-11296960D01*
X11825777Y-11296960D02*
X11816253Y-11306484D01*
X11816253Y-11306484D02*
X11806729Y-11296960D01*
X11806729Y-11296960D02*
X11816253Y-11287436D01*
X11816253Y-11287436D02*
X11816253Y-11306484D01*
X11997205Y-11173150D02*
X11997205Y-11306484D01*
X11949586Y-11096960D02*
X11901967Y-11239817D01*
X11901967Y-11239817D02*
X12025777Y-11239817D01*
X12140062Y-11106484D02*
X12159110Y-11106484D01*
X12159110Y-11106484D02*
X12178158Y-11116008D01*
X12178158Y-11116008D02*
X12187682Y-11125531D01*
X12187682Y-11125531D02*
X12197205Y-11144579D01*
X12197205Y-11144579D02*
X12206729Y-11182674D01*
X12206729Y-11182674D02*
X12206729Y-11230293D01*
X12206729Y-11230293D02*
X12197205Y-11268388D01*
X12197205Y-11268388D02*
X12187682Y-11287436D01*
X12187682Y-11287436D02*
X12178158Y-11296960D01*
X12178158Y-11296960D02*
X12159110Y-11306484D01*
X12159110Y-11306484D02*
X12140062Y-11306484D01*
X12140062Y-11306484D02*
X12121015Y-11296960D01*
X12121015Y-11296960D02*
X12111491Y-11287436D01*
X12111491Y-11287436D02*
X12101967Y-11268388D01*
X12101967Y-11268388D02*
X12092443Y-11230293D01*
X12092443Y-11230293D02*
X12092443Y-11182674D01*
X12092443Y-11182674D02*
X12101967Y-11144579D01*
X12101967Y-11144579D02*
X12111491Y-11125531D01*
X12111491Y-11125531D02*
X12121015Y-11116008D01*
X12121015Y-11116008D02*
X12140062Y-11106484D01*
X12330539Y-11106484D02*
X12349586Y-11106484D01*
X12349586Y-11106484D02*
X12368634Y-11116008D01*
X12368634Y-11116008D02*
X12378158Y-11125531D01*
X12378158Y-11125531D02*
X12387682Y-11144579D01*
X12387682Y-11144579D02*
X12397205Y-11182674D01*
X12397205Y-11182674D02*
X12397205Y-11230293D01*
X12397205Y-11230293D02*
X12387682Y-11268388D01*
X12387682Y-11268388D02*
X12378158Y-11287436D01*
X12378158Y-11287436D02*
X12368634Y-11296960D01*
X12368634Y-11296960D02*
X12349586Y-11306484D01*
X12349586Y-11306484D02*
X12330539Y-11306484D01*
X12330539Y-11306484D02*
X12311491Y-11296960D01*
X12311491Y-11296960D02*
X12301967Y-11287436D01*
X12301967Y-11287436D02*
X12292443Y-11268388D01*
X12292443Y-11268388D02*
X12282920Y-11230293D01*
X12282920Y-11230293D02*
X12282920Y-11182674D01*
X12282920Y-11182674D02*
X12292443Y-11144579D01*
X12292443Y-11144579D02*
X12301967Y-11125531D01*
X12301967Y-11125531D02*
X12311491Y-11116008D01*
X12311491Y-11116008D02*
X12330539Y-11106484D01*
X12482920Y-11306484D02*
X12482920Y-11173150D01*
X12482920Y-11192198D02*
X12492443Y-11182674D01*
X12492443Y-11182674D02*
X12511491Y-11173150D01*
X12511491Y-11173150D02*
X12540063Y-11173150D01*
X12540063Y-11173150D02*
X12559110Y-11182674D01*
X12559110Y-11182674D02*
X12568634Y-11201722D01*
X12568634Y-11201722D02*
X12568634Y-11306484D01*
X12568634Y-11201722D02*
X12578158Y-11182674D01*
X12578158Y-11182674D02*
X12597205Y-11173150D01*
X12597205Y-11173150D02*
X12625777Y-11173150D01*
X12625777Y-11173150D02*
X12644824Y-11182674D01*
X12644824Y-11182674D02*
X12654348Y-11201722D01*
X12654348Y-11201722D02*
X12654348Y-11306484D01*
X12749586Y-11306484D02*
X12749586Y-11173150D01*
X12749586Y-11192198D02*
X12759110Y-11182674D01*
X12759110Y-11182674D02*
X12778158Y-11173150D01*
X12778158Y-11173150D02*
X12806729Y-11173150D01*
X12806729Y-11173150D02*
X12825777Y-11182674D01*
X12825777Y-11182674D02*
X12835301Y-11201722D01*
X12835301Y-11201722D02*
X12835301Y-11306484D01*
X12835301Y-11201722D02*
X12844824Y-11182674D01*
X12844824Y-11182674D02*
X12863872Y-11173150D01*
X12863872Y-11173150D02*
X12892443Y-11173150D01*
X12892443Y-11173150D02*
X12911491Y-11182674D01*
X12911491Y-11182674D02*
X12921015Y-11201722D01*
X12921015Y-11201722D02*
X12921015Y-11306484D01*
X13311491Y-11096960D02*
X13140063Y-11354103D01*
X13568634Y-11106484D02*
X13587682Y-11106484D01*
X13587682Y-11106484D02*
X13606729Y-11116008D01*
X13606729Y-11116008D02*
X13616253Y-11125531D01*
X13616253Y-11125531D02*
X13625777Y-11144579D01*
X13625777Y-11144579D02*
X13635301Y-11182674D01*
X13635301Y-11182674D02*
X13635301Y-11230293D01*
X13635301Y-11230293D02*
X13625777Y-11268388D01*
X13625777Y-11268388D02*
X13616253Y-11287436D01*
X13616253Y-11287436D02*
X13606729Y-11296960D01*
X13606729Y-11296960D02*
X13587682Y-11306484D01*
X13587682Y-11306484D02*
X13568634Y-11306484D01*
X13568634Y-11306484D02*
X13549586Y-11296960D01*
X13549586Y-11296960D02*
X13540063Y-11287436D01*
X13540063Y-11287436D02*
X13530539Y-11268388D01*
X13530539Y-11268388D02*
X13521015Y-11230293D01*
X13521015Y-11230293D02*
X13521015Y-11182674D01*
X13521015Y-11182674D02*
X13530539Y-11144579D01*
X13530539Y-11144579D02*
X13540063Y-11125531D01*
X13540063Y-11125531D02*
X13549586Y-11116008D01*
X13549586Y-11116008D02*
X13568634Y-11106484D01*
X13721015Y-11287436D02*
X13730539Y-11296960D01*
X13730539Y-11296960D02*
X13721015Y-11306484D01*
X13721015Y-11306484D02*
X13711491Y-11296960D01*
X13711491Y-11296960D02*
X13721015Y-11287436D01*
X13721015Y-11287436D02*
X13721015Y-11306484D01*
X13854348Y-11106484D02*
X13873396Y-11106484D01*
X13873396Y-11106484D02*
X13892444Y-11116008D01*
X13892444Y-11116008D02*
X13901967Y-11125531D01*
X13901967Y-11125531D02*
X13911491Y-11144579D01*
X13911491Y-11144579D02*
X13921015Y-11182674D01*
X13921015Y-11182674D02*
X13921015Y-11230293D01*
X13921015Y-11230293D02*
X13911491Y-11268388D01*
X13911491Y-11268388D02*
X13901967Y-11287436D01*
X13901967Y-11287436D02*
X13892444Y-11296960D01*
X13892444Y-11296960D02*
X13873396Y-11306484D01*
X13873396Y-11306484D02*
X13854348Y-11306484D01*
X13854348Y-11306484D02*
X13835301Y-11296960D01*
X13835301Y-11296960D02*
X13825777Y-11287436D01*
X13825777Y-11287436D02*
X13816253Y-11268388D01*
X13816253Y-11268388D02*
X13806729Y-11230293D01*
X13806729Y-11230293D02*
X13806729Y-11182674D01*
X13806729Y-11182674D02*
X13816253Y-11144579D01*
X13816253Y-11144579D02*
X13825777Y-11125531D01*
X13825777Y-11125531D02*
X13835301Y-11116008D01*
X13835301Y-11116008D02*
X13854348Y-11106484D01*
X14111491Y-11306484D02*
X13997206Y-11306484D01*
X14054348Y-11306484D02*
X14054348Y-11106484D01*
X14054348Y-11106484D02*
X14035301Y-11135055D01*
X14035301Y-11135055D02*
X14016253Y-11154103D01*
X14016253Y-11154103D02*
X13997206Y-11163627D01*
X14292444Y-11106484D02*
X14197206Y-11106484D01*
X14197206Y-11106484D02*
X14187682Y-11201722D01*
X14187682Y-11201722D02*
X14197206Y-11192198D01*
X14197206Y-11192198D02*
X14216253Y-11182674D01*
X14216253Y-11182674D02*
X14263872Y-11182674D01*
X14263872Y-11182674D02*
X14282920Y-11192198D01*
X14282920Y-11192198D02*
X14292444Y-11201722D01*
X14292444Y-11201722D02*
X14301967Y-11220769D01*
X14301967Y-11220769D02*
X14301967Y-11268388D01*
X14301967Y-11268388D02*
X14292444Y-11287436D01*
X14292444Y-11287436D02*
X14282920Y-11296960D01*
X14282920Y-11296960D02*
X14263872Y-11306484D01*
X14263872Y-11306484D02*
X14216253Y-11306484D01*
X14216253Y-11306484D02*
X14197206Y-11296960D01*
X14197206Y-11296960D02*
X14187682Y-11287436D01*
X14368634Y-11106484D02*
X14501967Y-11106484D01*
X14501967Y-11106484D02*
X14416253Y-11306484D01*
X14568634Y-11106484D02*
X14568634Y-11144579D01*
X14644825Y-11106484D02*
X14644825Y-11144579D01*
X14940063Y-11382674D02*
X14930539Y-11373150D01*
X14930539Y-11373150D02*
X14911491Y-11344579D01*
X14911491Y-11344579D02*
X14901968Y-11325531D01*
X14901968Y-11325531D02*
X14892444Y-11296960D01*
X14892444Y-11296960D02*
X14882920Y-11249341D01*
X14882920Y-11249341D02*
X14882920Y-11211246D01*
X14882920Y-11211246D02*
X14892444Y-11163627D01*
X14892444Y-11163627D02*
X14901968Y-11135055D01*
X14901968Y-11135055D02*
X14911491Y-11116008D01*
X14911491Y-11116008D02*
X14930539Y-11087436D01*
X14930539Y-11087436D02*
X14940063Y-11077912D01*
X15101968Y-11173150D02*
X15101968Y-11306484D01*
X15054348Y-11096960D02*
X15006729Y-11239817D01*
X15006729Y-11239817D02*
X15130539Y-11239817D01*
X15311491Y-11306484D02*
X15197206Y-11306484D01*
X15254348Y-11306484D02*
X15254348Y-11106484D01*
X15254348Y-11106484D02*
X15235301Y-11135055D01*
X15235301Y-11135055D02*
X15216253Y-11154103D01*
X15216253Y-11154103D02*
X15197206Y-11163627D01*
X15549587Y-11306484D02*
X15549587Y-11106484D01*
X15635301Y-11306484D02*
X15635301Y-11201722D01*
X15635301Y-11201722D02*
X15625777Y-11182674D01*
X15625777Y-11182674D02*
X15606730Y-11173150D01*
X15606730Y-11173150D02*
X15578158Y-11173150D01*
X15578158Y-11173150D02*
X15559110Y-11182674D01*
X15559110Y-11182674D02*
X15549587Y-11192198D01*
X15759110Y-11306484D02*
X15740063Y-11296960D01*
X15740063Y-11296960D02*
X15730539Y-11287436D01*
X15730539Y-11287436D02*
X15721015Y-11268388D01*
X15721015Y-11268388D02*
X15721015Y-11211246D01*
X15721015Y-11211246D02*
X15730539Y-11192198D01*
X15730539Y-11192198D02*
X15740063Y-11182674D01*
X15740063Y-11182674D02*
X15759110Y-11173150D01*
X15759110Y-11173150D02*
X15787682Y-11173150D01*
X15787682Y-11173150D02*
X15806730Y-11182674D01*
X15806730Y-11182674D02*
X15816253Y-11192198D01*
X15816253Y-11192198D02*
X15825777Y-11211246D01*
X15825777Y-11211246D02*
X15825777Y-11268388D01*
X15825777Y-11268388D02*
X15816253Y-11287436D01*
X15816253Y-11287436D02*
X15806730Y-11296960D01*
X15806730Y-11296960D02*
X15787682Y-11306484D01*
X15787682Y-11306484D02*
X15759110Y-11306484D01*
X15940063Y-11306484D02*
X15921015Y-11296960D01*
X15921015Y-11296960D02*
X15911491Y-11277912D01*
X15911491Y-11277912D02*
X15911491Y-11106484D01*
X16092444Y-11296960D02*
X16073396Y-11306484D01*
X16073396Y-11306484D02*
X16035301Y-11306484D01*
X16035301Y-11306484D02*
X16016253Y-11296960D01*
X16016253Y-11296960D02*
X16006730Y-11277912D01*
X16006730Y-11277912D02*
X16006730Y-11201722D01*
X16006730Y-11201722D02*
X16016253Y-11182674D01*
X16016253Y-11182674D02*
X16035301Y-11173150D01*
X16035301Y-11173150D02*
X16073396Y-11173150D01*
X16073396Y-11173150D02*
X16092444Y-11182674D01*
X16092444Y-11182674D02*
X16101968Y-11201722D01*
X16101968Y-11201722D02*
X16101968Y-11220769D01*
X16101968Y-11220769D02*
X16006730Y-11239817D01*
X16178158Y-11296960D02*
X16197206Y-11306484D01*
X16197206Y-11306484D02*
X16235301Y-11306484D01*
X16235301Y-11306484D02*
X16254349Y-11296960D01*
X16254349Y-11296960D02*
X16263872Y-11277912D01*
X16263872Y-11277912D02*
X16263872Y-11268388D01*
X16263872Y-11268388D02*
X16254349Y-11249341D01*
X16254349Y-11249341D02*
X16235301Y-11239817D01*
X16235301Y-11239817D02*
X16206730Y-11239817D01*
X16206730Y-11239817D02*
X16187682Y-11230293D01*
X16187682Y-11230293D02*
X16178158Y-11211246D01*
X16178158Y-11211246D02*
X16178158Y-11201722D01*
X16178158Y-11201722D02*
X16187682Y-11182674D01*
X16187682Y-11182674D02*
X16206730Y-11173150D01*
X16206730Y-11173150D02*
X16235301Y-11173150D01*
X16235301Y-11173150D02*
X16254349Y-11182674D01*
X16330539Y-11382674D02*
X16340063Y-11373150D01*
X16340063Y-11373150D02*
X16359111Y-11344579D01*
X16359111Y-11344579D02*
X16368634Y-11325531D01*
X16368634Y-11325531D02*
X16378158Y-11296960D01*
X16378158Y-11296960D02*
X16387682Y-11249341D01*
X16387682Y-11249341D02*
X16387682Y-11211246D01*
X16387682Y-11211246D02*
X16378158Y-11163627D01*
X16378158Y-11163627D02*
X16368634Y-11135055D01*
X16368634Y-11135055D02*
X16359111Y-11116008D01*
X16359111Y-11116008D02*
X16340063Y-11087436D01*
X16340063Y-11087436D02*
X16330539Y-11077912D01*
D10*
X11365000Y-11479000D02*
G75*
G02*
X11285000Y-11479000I-40000J0D01*
G01*
X11285000Y-11479000D02*
G75*
G02*
X11365000Y-11479000I40000J0D01*
G01*
D11*
X11663872Y-11370484D02*
X11682920Y-11370484D01*
X11682920Y-11370484D02*
X11701967Y-11380008D01*
X11701967Y-11380008D02*
X11711491Y-11389531D01*
X11711491Y-11389531D02*
X11721015Y-11408579D01*
X11721015Y-11408579D02*
X11730539Y-11446674D01*
X11730539Y-11446674D02*
X11730539Y-11494293D01*
X11730539Y-11494293D02*
X11721015Y-11532388D01*
X11721015Y-11532388D02*
X11711491Y-11551436D01*
X11711491Y-11551436D02*
X11701967Y-11560960D01*
X11701967Y-11560960D02*
X11682920Y-11570484D01*
X11682920Y-11570484D02*
X11663872Y-11570484D01*
X11663872Y-11570484D02*
X11644824Y-11560960D01*
X11644824Y-11560960D02*
X11635301Y-11551436D01*
X11635301Y-11551436D02*
X11625777Y-11532388D01*
X11625777Y-11532388D02*
X11616253Y-11494293D01*
X11616253Y-11494293D02*
X11616253Y-11446674D01*
X11616253Y-11446674D02*
X11625777Y-11408579D01*
X11625777Y-11408579D02*
X11635301Y-11389531D01*
X11635301Y-11389531D02*
X11644824Y-11380008D01*
X11644824Y-11380008D02*
X11663872Y-11370484D01*
X11816253Y-11551436D02*
X11825777Y-11560960D01*
X11825777Y-11560960D02*
X11816253Y-11570484D01*
X11816253Y-11570484D02*
X11806729Y-11560960D01*
X11806729Y-11560960D02*
X11816253Y-11551436D01*
X11816253Y-11551436D02*
X11816253Y-11570484D01*
X11940062Y-11456198D02*
X11921015Y-11446674D01*
X11921015Y-11446674D02*
X11911491Y-11437150D01*
X11911491Y-11437150D02*
X11901967Y-11418103D01*
X11901967Y-11418103D02*
X11901967Y-11408579D01*
X11901967Y-11408579D02*
X11911491Y-11389531D01*
X11911491Y-11389531D02*
X11921015Y-11380008D01*
X11921015Y-11380008D02*
X11940062Y-11370484D01*
X11940062Y-11370484D02*
X11978158Y-11370484D01*
X11978158Y-11370484D02*
X11997205Y-11380008D01*
X11997205Y-11380008D02*
X12006729Y-11389531D01*
X12006729Y-11389531D02*
X12016253Y-11408579D01*
X12016253Y-11408579D02*
X12016253Y-11418103D01*
X12016253Y-11418103D02*
X12006729Y-11437150D01*
X12006729Y-11437150D02*
X11997205Y-11446674D01*
X11997205Y-11446674D02*
X11978158Y-11456198D01*
X11978158Y-11456198D02*
X11940062Y-11456198D01*
X11940062Y-11456198D02*
X11921015Y-11465722D01*
X11921015Y-11465722D02*
X11911491Y-11475246D01*
X11911491Y-11475246D02*
X11901967Y-11494293D01*
X11901967Y-11494293D02*
X11901967Y-11532388D01*
X11901967Y-11532388D02*
X11911491Y-11551436D01*
X11911491Y-11551436D02*
X11921015Y-11560960D01*
X11921015Y-11560960D02*
X11940062Y-11570484D01*
X11940062Y-11570484D02*
X11978158Y-11570484D01*
X11978158Y-11570484D02*
X11997205Y-11560960D01*
X11997205Y-11560960D02*
X12006729Y-11551436D01*
X12006729Y-11551436D02*
X12016253Y-11532388D01*
X12016253Y-11532388D02*
X12016253Y-11494293D01*
X12016253Y-11494293D02*
X12006729Y-11475246D01*
X12006729Y-11475246D02*
X11997205Y-11465722D01*
X11997205Y-11465722D02*
X11978158Y-11456198D01*
X12140062Y-11370484D02*
X12159110Y-11370484D01*
X12159110Y-11370484D02*
X12178158Y-11380008D01*
X12178158Y-11380008D02*
X12187682Y-11389531D01*
X12187682Y-11389531D02*
X12197205Y-11408579D01*
X12197205Y-11408579D02*
X12206729Y-11446674D01*
X12206729Y-11446674D02*
X12206729Y-11494293D01*
X12206729Y-11494293D02*
X12197205Y-11532388D01*
X12197205Y-11532388D02*
X12187682Y-11551436D01*
X12187682Y-11551436D02*
X12178158Y-11560960D01*
X12178158Y-11560960D02*
X12159110Y-11570484D01*
X12159110Y-11570484D02*
X12140062Y-11570484D01*
X12140062Y-11570484D02*
X12121015Y-11560960D01*
X12121015Y-11560960D02*
X12111491Y-11551436D01*
X12111491Y-11551436D02*
X12101967Y-11532388D01*
X12101967Y-11532388D02*
X12092443Y-11494293D01*
X12092443Y-11494293D02*
X12092443Y-11446674D01*
X12092443Y-11446674D02*
X12101967Y-11408579D01*
X12101967Y-11408579D02*
X12111491Y-11389531D01*
X12111491Y-11389531D02*
X12121015Y-11380008D01*
X12121015Y-11380008D02*
X12140062Y-11370484D01*
X12330539Y-11370484D02*
X12349586Y-11370484D01*
X12349586Y-11370484D02*
X12368634Y-11380008D01*
X12368634Y-11380008D02*
X12378158Y-11389531D01*
X12378158Y-11389531D02*
X12387682Y-11408579D01*
X12387682Y-11408579D02*
X12397205Y-11446674D01*
X12397205Y-11446674D02*
X12397205Y-11494293D01*
X12397205Y-11494293D02*
X12387682Y-11532388D01*
X12387682Y-11532388D02*
X12378158Y-11551436D01*
X12378158Y-11551436D02*
X12368634Y-11560960D01*
X12368634Y-11560960D02*
X12349586Y-11570484D01*
X12349586Y-11570484D02*
X12330539Y-11570484D01*
X12330539Y-11570484D02*
X12311491Y-11560960D01*
X12311491Y-11560960D02*
X12301967Y-11551436D01*
X12301967Y-11551436D02*
X12292443Y-11532388D01*
X12292443Y-11532388D02*
X12282920Y-11494293D01*
X12282920Y-11494293D02*
X12282920Y-11446674D01*
X12282920Y-11446674D02*
X12292443Y-11408579D01*
X12292443Y-11408579D02*
X12301967Y-11389531D01*
X12301967Y-11389531D02*
X12311491Y-11380008D01*
X12311491Y-11380008D02*
X12330539Y-11370484D01*
X12482920Y-11570484D02*
X12482920Y-11437150D01*
X12482920Y-11456198D02*
X12492443Y-11446674D01*
X12492443Y-11446674D02*
X12511491Y-11437150D01*
X12511491Y-11437150D02*
X12540063Y-11437150D01*
X12540063Y-11437150D02*
X12559110Y-11446674D01*
X12559110Y-11446674D02*
X12568634Y-11465722D01*
X12568634Y-11465722D02*
X12568634Y-11570484D01*
X12568634Y-11465722D02*
X12578158Y-11446674D01*
X12578158Y-11446674D02*
X12597205Y-11437150D01*
X12597205Y-11437150D02*
X12625777Y-11437150D01*
X12625777Y-11437150D02*
X12644824Y-11446674D01*
X12644824Y-11446674D02*
X12654348Y-11465722D01*
X12654348Y-11465722D02*
X12654348Y-11570484D01*
X12749586Y-11570484D02*
X12749586Y-11437150D01*
X12749586Y-11456198D02*
X12759110Y-11446674D01*
X12759110Y-11446674D02*
X12778158Y-11437150D01*
X12778158Y-11437150D02*
X12806729Y-11437150D01*
X12806729Y-11437150D02*
X12825777Y-11446674D01*
X12825777Y-11446674D02*
X12835301Y-11465722D01*
X12835301Y-11465722D02*
X12835301Y-11570484D01*
X12835301Y-11465722D02*
X12844824Y-11446674D01*
X12844824Y-11446674D02*
X12863872Y-11437150D01*
X12863872Y-11437150D02*
X12892443Y-11437150D01*
X12892443Y-11437150D02*
X12911491Y-11446674D01*
X12911491Y-11446674D02*
X12921015Y-11465722D01*
X12921015Y-11465722D02*
X12921015Y-11570484D01*
X13311491Y-11360960D02*
X13140063Y-11618103D01*
X13568634Y-11370484D02*
X13587682Y-11370484D01*
X13587682Y-11370484D02*
X13606729Y-11380008D01*
X13606729Y-11380008D02*
X13616253Y-11389531D01*
X13616253Y-11389531D02*
X13625777Y-11408579D01*
X13625777Y-11408579D02*
X13635301Y-11446674D01*
X13635301Y-11446674D02*
X13635301Y-11494293D01*
X13635301Y-11494293D02*
X13625777Y-11532388D01*
X13625777Y-11532388D02*
X13616253Y-11551436D01*
X13616253Y-11551436D02*
X13606729Y-11560960D01*
X13606729Y-11560960D02*
X13587682Y-11570484D01*
X13587682Y-11570484D02*
X13568634Y-11570484D01*
X13568634Y-11570484D02*
X13549586Y-11560960D01*
X13549586Y-11560960D02*
X13540063Y-11551436D01*
X13540063Y-11551436D02*
X13530539Y-11532388D01*
X13530539Y-11532388D02*
X13521015Y-11494293D01*
X13521015Y-11494293D02*
X13521015Y-11446674D01*
X13521015Y-11446674D02*
X13530539Y-11408579D01*
X13530539Y-11408579D02*
X13540063Y-11389531D01*
X13540063Y-11389531D02*
X13549586Y-11380008D01*
X13549586Y-11380008D02*
X13568634Y-11370484D01*
X13721015Y-11551436D02*
X13730539Y-11560960D01*
X13730539Y-11560960D02*
X13721015Y-11570484D01*
X13721015Y-11570484D02*
X13711491Y-11560960D01*
X13711491Y-11560960D02*
X13721015Y-11551436D01*
X13721015Y-11551436D02*
X13721015Y-11570484D01*
X13854348Y-11370484D02*
X13873396Y-11370484D01*
X13873396Y-11370484D02*
X13892444Y-11380008D01*
X13892444Y-11380008D02*
X13901967Y-11389531D01*
X13901967Y-11389531D02*
X13911491Y-11408579D01*
X13911491Y-11408579D02*
X13921015Y-11446674D01*
X13921015Y-11446674D02*
X13921015Y-11494293D01*
X13921015Y-11494293D02*
X13911491Y-11532388D01*
X13911491Y-11532388D02*
X13901967Y-11551436D01*
X13901967Y-11551436D02*
X13892444Y-11560960D01*
X13892444Y-11560960D02*
X13873396Y-11570484D01*
X13873396Y-11570484D02*
X13854348Y-11570484D01*
X13854348Y-11570484D02*
X13835301Y-11560960D01*
X13835301Y-11560960D02*
X13825777Y-11551436D01*
X13825777Y-11551436D02*
X13816253Y-11532388D01*
X13816253Y-11532388D02*
X13806729Y-11494293D01*
X13806729Y-11494293D02*
X13806729Y-11446674D01*
X13806729Y-11446674D02*
X13816253Y-11408579D01*
X13816253Y-11408579D02*
X13825777Y-11389531D01*
X13825777Y-11389531D02*
X13835301Y-11380008D01*
X13835301Y-11380008D02*
X13854348Y-11370484D01*
X13987682Y-11370484D02*
X14111491Y-11370484D01*
X14111491Y-11370484D02*
X14044825Y-11446674D01*
X14044825Y-11446674D02*
X14073396Y-11446674D01*
X14073396Y-11446674D02*
X14092444Y-11456198D01*
X14092444Y-11456198D02*
X14101967Y-11465722D01*
X14101967Y-11465722D02*
X14111491Y-11484769D01*
X14111491Y-11484769D02*
X14111491Y-11532388D01*
X14111491Y-11532388D02*
X14101967Y-11551436D01*
X14101967Y-11551436D02*
X14092444Y-11560960D01*
X14092444Y-11560960D02*
X14073396Y-11570484D01*
X14073396Y-11570484D02*
X14016253Y-11570484D01*
X14016253Y-11570484D02*
X13997206Y-11560960D01*
X13997206Y-11560960D02*
X13987682Y-11551436D01*
X14301967Y-11570484D02*
X14187682Y-11570484D01*
X14244825Y-11570484D02*
X14244825Y-11370484D01*
X14244825Y-11370484D02*
X14225777Y-11399055D01*
X14225777Y-11399055D02*
X14206729Y-11418103D01*
X14206729Y-11418103D02*
X14187682Y-11427627D01*
X14482920Y-11370484D02*
X14387682Y-11370484D01*
X14387682Y-11370484D02*
X14378158Y-11465722D01*
X14378158Y-11465722D02*
X14387682Y-11456198D01*
X14387682Y-11456198D02*
X14406729Y-11446674D01*
X14406729Y-11446674D02*
X14454348Y-11446674D01*
X14454348Y-11446674D02*
X14473396Y-11456198D01*
X14473396Y-11456198D02*
X14482920Y-11465722D01*
X14482920Y-11465722D02*
X14492444Y-11484769D01*
X14492444Y-11484769D02*
X14492444Y-11532388D01*
X14492444Y-11532388D02*
X14482920Y-11551436D01*
X14482920Y-11551436D02*
X14473396Y-11560960D01*
X14473396Y-11560960D02*
X14454348Y-11570484D01*
X14454348Y-11570484D02*
X14406729Y-11570484D01*
X14406729Y-11570484D02*
X14387682Y-11560960D01*
X14387682Y-11560960D02*
X14378158Y-11551436D01*
X14568634Y-11370484D02*
X14568634Y-11408579D01*
X14644825Y-11370484D02*
X14644825Y-11408579D01*
X14940063Y-11646674D02*
X14930539Y-11637150D01*
X14930539Y-11637150D02*
X14911491Y-11608579D01*
X14911491Y-11608579D02*
X14901968Y-11589531D01*
X14901968Y-11589531D02*
X14892444Y-11560960D01*
X14892444Y-11560960D02*
X14882920Y-11513341D01*
X14882920Y-11513341D02*
X14882920Y-11475246D01*
X14882920Y-11475246D02*
X14892444Y-11427627D01*
X14892444Y-11427627D02*
X14901968Y-11399055D01*
X14901968Y-11399055D02*
X14911491Y-11380008D01*
X14911491Y-11380008D02*
X14930539Y-11351436D01*
X14930539Y-11351436D02*
X14940063Y-11341912D01*
X15121015Y-11570484D02*
X15006729Y-11570484D01*
X15063872Y-11570484D02*
X15063872Y-11370484D01*
X15063872Y-11370484D02*
X15044825Y-11399055D01*
X15044825Y-11399055D02*
X15025777Y-11418103D01*
X15025777Y-11418103D02*
X15006729Y-11427627D01*
X15292444Y-11370484D02*
X15254348Y-11370484D01*
X15254348Y-11370484D02*
X15235301Y-11380008D01*
X15235301Y-11380008D02*
X15225777Y-11389531D01*
X15225777Y-11389531D02*
X15206729Y-11418103D01*
X15206729Y-11418103D02*
X15197206Y-11456198D01*
X15197206Y-11456198D02*
X15197206Y-11532388D01*
X15197206Y-11532388D02*
X15206729Y-11551436D01*
X15206729Y-11551436D02*
X15216253Y-11560960D01*
X15216253Y-11560960D02*
X15235301Y-11570484D01*
X15235301Y-11570484D02*
X15273396Y-11570484D01*
X15273396Y-11570484D02*
X15292444Y-11560960D01*
X15292444Y-11560960D02*
X15301968Y-11551436D01*
X15301968Y-11551436D02*
X15311491Y-11532388D01*
X15311491Y-11532388D02*
X15311491Y-11484769D01*
X15311491Y-11484769D02*
X15301968Y-11465722D01*
X15301968Y-11465722D02*
X15292444Y-11456198D01*
X15292444Y-11456198D02*
X15273396Y-11446674D01*
X15273396Y-11446674D02*
X15235301Y-11446674D01*
X15235301Y-11446674D02*
X15216253Y-11456198D01*
X15216253Y-11456198D02*
X15206729Y-11465722D01*
X15206729Y-11465722D02*
X15197206Y-11484769D01*
X15549587Y-11570484D02*
X15549587Y-11370484D01*
X15635301Y-11570484D02*
X15635301Y-11465722D01*
X15635301Y-11465722D02*
X15625777Y-11446674D01*
X15625777Y-11446674D02*
X15606730Y-11437150D01*
X15606730Y-11437150D02*
X15578158Y-11437150D01*
X15578158Y-11437150D02*
X15559110Y-11446674D01*
X15559110Y-11446674D02*
X15549587Y-11456198D01*
X15759110Y-11570484D02*
X15740063Y-11560960D01*
X15740063Y-11560960D02*
X15730539Y-11551436D01*
X15730539Y-11551436D02*
X15721015Y-11532388D01*
X15721015Y-11532388D02*
X15721015Y-11475246D01*
X15721015Y-11475246D02*
X15730539Y-11456198D01*
X15730539Y-11456198D02*
X15740063Y-11446674D01*
X15740063Y-11446674D02*
X15759110Y-11437150D01*
X15759110Y-11437150D02*
X15787682Y-11437150D01*
X15787682Y-11437150D02*
X15806730Y-11446674D01*
X15806730Y-11446674D02*
X15816253Y-11456198D01*
X15816253Y-11456198D02*
X15825777Y-11475246D01*
X15825777Y-11475246D02*
X15825777Y-11532388D01*
X15825777Y-11532388D02*
X15816253Y-11551436D01*
X15816253Y-11551436D02*
X15806730Y-11560960D01*
X15806730Y-11560960D02*
X15787682Y-11570484D01*
X15787682Y-11570484D02*
X15759110Y-11570484D01*
X15940063Y-11570484D02*
X15921015Y-11560960D01*
X15921015Y-11560960D02*
X15911491Y-11541912D01*
X15911491Y-11541912D02*
X15911491Y-11370484D01*
X16092444Y-11560960D02*
X16073396Y-11570484D01*
X16073396Y-11570484D02*
X16035301Y-11570484D01*
X16035301Y-11570484D02*
X16016253Y-11560960D01*
X16016253Y-11560960D02*
X16006730Y-11541912D01*
X16006730Y-11541912D02*
X16006730Y-11465722D01*
X16006730Y-11465722D02*
X16016253Y-11446674D01*
X16016253Y-11446674D02*
X16035301Y-11437150D01*
X16035301Y-11437150D02*
X16073396Y-11437150D01*
X16073396Y-11437150D02*
X16092444Y-11446674D01*
X16092444Y-11446674D02*
X16101968Y-11465722D01*
X16101968Y-11465722D02*
X16101968Y-11484769D01*
X16101968Y-11484769D02*
X16006730Y-11503817D01*
X16178158Y-11560960D02*
X16197206Y-11570484D01*
X16197206Y-11570484D02*
X16235301Y-11570484D01*
X16235301Y-11570484D02*
X16254349Y-11560960D01*
X16254349Y-11560960D02*
X16263872Y-11541912D01*
X16263872Y-11541912D02*
X16263872Y-11532388D01*
X16263872Y-11532388D02*
X16254349Y-11513341D01*
X16254349Y-11513341D02*
X16235301Y-11503817D01*
X16235301Y-11503817D02*
X16206730Y-11503817D01*
X16206730Y-11503817D02*
X16187682Y-11494293D01*
X16187682Y-11494293D02*
X16178158Y-11475246D01*
X16178158Y-11475246D02*
X16178158Y-11465722D01*
X16178158Y-11465722D02*
X16187682Y-11446674D01*
X16187682Y-11446674D02*
X16206730Y-11437150D01*
X16206730Y-11437150D02*
X16235301Y-11437150D01*
X16235301Y-11437150D02*
X16254349Y-11446674D01*
X16330539Y-11646674D02*
X16340063Y-11637150D01*
X16340063Y-11637150D02*
X16359111Y-11608579D01*
X16359111Y-11608579D02*
X16368634Y-11589531D01*
X16368634Y-11589531D02*
X16378158Y-11560960D01*
X16378158Y-11560960D02*
X16387682Y-11513341D01*
X16387682Y-11513341D02*
X16387682Y-11475246D01*
X16387682Y-11475246D02*
X16378158Y-11427627D01*
X16378158Y-11427627D02*
X16368634Y-11399055D01*
X16368634Y-11399055D02*
X16359111Y-11380008D01*
X16359111Y-11380008D02*
X16340063Y-11351436D01*
X16340063Y-11351436D02*
X16330539Y-11341912D01*
D10*
X11315000Y-11693000D02*
X11315000Y-11793000D01*
X11265000Y-11743000D02*
X11365000Y-11743000D01*
D11*
X11730539Y-11834484D02*
X11616253Y-11834484D01*
X11673396Y-11834484D02*
X11673396Y-11634484D01*
X11673396Y-11634484D02*
X11654348Y-11663055D01*
X11654348Y-11663055D02*
X11635301Y-11682103D01*
X11635301Y-11682103D02*
X11616253Y-11691627D01*
X11816253Y-11815436D02*
X11825777Y-11824960D01*
X11825777Y-11824960D02*
X11816253Y-11834484D01*
X11816253Y-11834484D02*
X11806729Y-11824960D01*
X11806729Y-11824960D02*
X11816253Y-11815436D01*
X11816253Y-11815436D02*
X11816253Y-11834484D01*
X11949586Y-11634484D02*
X11968634Y-11634484D01*
X11968634Y-11634484D02*
X11987682Y-11644008D01*
X11987682Y-11644008D02*
X11997205Y-11653531D01*
X11997205Y-11653531D02*
X12006729Y-11672579D01*
X12006729Y-11672579D02*
X12016253Y-11710674D01*
X12016253Y-11710674D02*
X12016253Y-11758293D01*
X12016253Y-11758293D02*
X12006729Y-11796388D01*
X12006729Y-11796388D02*
X11997205Y-11815436D01*
X11997205Y-11815436D02*
X11987682Y-11824960D01*
X11987682Y-11824960D02*
X11968634Y-11834484D01*
X11968634Y-11834484D02*
X11949586Y-11834484D01*
X11949586Y-11834484D02*
X11930539Y-11824960D01*
X11930539Y-11824960D02*
X11921015Y-11815436D01*
X11921015Y-11815436D02*
X11911491Y-11796388D01*
X11911491Y-11796388D02*
X11901967Y-11758293D01*
X11901967Y-11758293D02*
X11901967Y-11710674D01*
X11901967Y-11710674D02*
X11911491Y-11672579D01*
X11911491Y-11672579D02*
X11921015Y-11653531D01*
X11921015Y-11653531D02*
X11930539Y-11644008D01*
X11930539Y-11644008D02*
X11949586Y-11634484D01*
X12140062Y-11634484D02*
X12159110Y-11634484D01*
X12159110Y-11634484D02*
X12178158Y-11644008D01*
X12178158Y-11644008D02*
X12187682Y-11653531D01*
X12187682Y-11653531D02*
X12197205Y-11672579D01*
X12197205Y-11672579D02*
X12206729Y-11710674D01*
X12206729Y-11710674D02*
X12206729Y-11758293D01*
X12206729Y-11758293D02*
X12197205Y-11796388D01*
X12197205Y-11796388D02*
X12187682Y-11815436D01*
X12187682Y-11815436D02*
X12178158Y-11824960D01*
X12178158Y-11824960D02*
X12159110Y-11834484D01*
X12159110Y-11834484D02*
X12140062Y-11834484D01*
X12140062Y-11834484D02*
X12121015Y-11824960D01*
X12121015Y-11824960D02*
X12111491Y-11815436D01*
X12111491Y-11815436D02*
X12101967Y-11796388D01*
X12101967Y-11796388D02*
X12092443Y-11758293D01*
X12092443Y-11758293D02*
X12092443Y-11710674D01*
X12092443Y-11710674D02*
X12101967Y-11672579D01*
X12101967Y-11672579D02*
X12111491Y-11653531D01*
X12111491Y-11653531D02*
X12121015Y-11644008D01*
X12121015Y-11644008D02*
X12140062Y-11634484D01*
X12330539Y-11634484D02*
X12349586Y-11634484D01*
X12349586Y-11634484D02*
X12368634Y-11644008D01*
X12368634Y-11644008D02*
X12378158Y-11653531D01*
X12378158Y-11653531D02*
X12387682Y-11672579D01*
X12387682Y-11672579D02*
X12397205Y-11710674D01*
X12397205Y-11710674D02*
X12397205Y-11758293D01*
X12397205Y-11758293D02*
X12387682Y-11796388D01*
X12387682Y-11796388D02*
X12378158Y-11815436D01*
X12378158Y-11815436D02*
X12368634Y-11824960D01*
X12368634Y-11824960D02*
X12349586Y-11834484D01*
X12349586Y-11834484D02*
X12330539Y-11834484D01*
X12330539Y-11834484D02*
X12311491Y-11824960D01*
X12311491Y-11824960D02*
X12301967Y-11815436D01*
X12301967Y-11815436D02*
X12292443Y-11796388D01*
X12292443Y-11796388D02*
X12282920Y-11758293D01*
X12282920Y-11758293D02*
X12282920Y-11710674D01*
X12282920Y-11710674D02*
X12292443Y-11672579D01*
X12292443Y-11672579D02*
X12301967Y-11653531D01*
X12301967Y-11653531D02*
X12311491Y-11644008D01*
X12311491Y-11644008D02*
X12330539Y-11634484D01*
X12482920Y-11834484D02*
X12482920Y-11701150D01*
X12482920Y-11720198D02*
X12492443Y-11710674D01*
X12492443Y-11710674D02*
X12511491Y-11701150D01*
X12511491Y-11701150D02*
X12540063Y-11701150D01*
X12540063Y-11701150D02*
X12559110Y-11710674D01*
X12559110Y-11710674D02*
X12568634Y-11729722D01*
X12568634Y-11729722D02*
X12568634Y-11834484D01*
X12568634Y-11729722D02*
X12578158Y-11710674D01*
X12578158Y-11710674D02*
X12597205Y-11701150D01*
X12597205Y-11701150D02*
X12625777Y-11701150D01*
X12625777Y-11701150D02*
X12644824Y-11710674D01*
X12644824Y-11710674D02*
X12654348Y-11729722D01*
X12654348Y-11729722D02*
X12654348Y-11834484D01*
X12749586Y-11834484D02*
X12749586Y-11701150D01*
X12749586Y-11720198D02*
X12759110Y-11710674D01*
X12759110Y-11710674D02*
X12778158Y-11701150D01*
X12778158Y-11701150D02*
X12806729Y-11701150D01*
X12806729Y-11701150D02*
X12825777Y-11710674D01*
X12825777Y-11710674D02*
X12835301Y-11729722D01*
X12835301Y-11729722D02*
X12835301Y-11834484D01*
X12835301Y-11729722D02*
X12844824Y-11710674D01*
X12844824Y-11710674D02*
X12863872Y-11701150D01*
X12863872Y-11701150D02*
X12892443Y-11701150D01*
X12892443Y-11701150D02*
X12911491Y-11710674D01*
X12911491Y-11710674D02*
X12921015Y-11729722D01*
X12921015Y-11729722D02*
X12921015Y-11834484D01*
X13311491Y-11624960D02*
X13140063Y-11882103D01*
X13568634Y-11634484D02*
X13587682Y-11634484D01*
X13587682Y-11634484D02*
X13606729Y-11644008D01*
X13606729Y-11644008D02*
X13616253Y-11653531D01*
X13616253Y-11653531D02*
X13625777Y-11672579D01*
X13625777Y-11672579D02*
X13635301Y-11710674D01*
X13635301Y-11710674D02*
X13635301Y-11758293D01*
X13635301Y-11758293D02*
X13625777Y-11796388D01*
X13625777Y-11796388D02*
X13616253Y-11815436D01*
X13616253Y-11815436D02*
X13606729Y-11824960D01*
X13606729Y-11824960D02*
X13587682Y-11834484D01*
X13587682Y-11834484D02*
X13568634Y-11834484D01*
X13568634Y-11834484D02*
X13549586Y-11824960D01*
X13549586Y-11824960D02*
X13540063Y-11815436D01*
X13540063Y-11815436D02*
X13530539Y-11796388D01*
X13530539Y-11796388D02*
X13521015Y-11758293D01*
X13521015Y-11758293D02*
X13521015Y-11710674D01*
X13521015Y-11710674D02*
X13530539Y-11672579D01*
X13530539Y-11672579D02*
X13540063Y-11653531D01*
X13540063Y-11653531D02*
X13549586Y-11644008D01*
X13549586Y-11644008D02*
X13568634Y-11634484D01*
X13721015Y-11815436D02*
X13730539Y-11824960D01*
X13730539Y-11824960D02*
X13721015Y-11834484D01*
X13721015Y-11834484D02*
X13711491Y-11824960D01*
X13711491Y-11824960D02*
X13721015Y-11815436D01*
X13721015Y-11815436D02*
X13721015Y-11834484D01*
X13854348Y-11634484D02*
X13873396Y-11634484D01*
X13873396Y-11634484D02*
X13892444Y-11644008D01*
X13892444Y-11644008D02*
X13901967Y-11653531D01*
X13901967Y-11653531D02*
X13911491Y-11672579D01*
X13911491Y-11672579D02*
X13921015Y-11710674D01*
X13921015Y-11710674D02*
X13921015Y-11758293D01*
X13921015Y-11758293D02*
X13911491Y-11796388D01*
X13911491Y-11796388D02*
X13901967Y-11815436D01*
X13901967Y-11815436D02*
X13892444Y-11824960D01*
X13892444Y-11824960D02*
X13873396Y-11834484D01*
X13873396Y-11834484D02*
X13854348Y-11834484D01*
X13854348Y-11834484D02*
X13835301Y-11824960D01*
X13835301Y-11824960D02*
X13825777Y-11815436D01*
X13825777Y-11815436D02*
X13816253Y-11796388D01*
X13816253Y-11796388D02*
X13806729Y-11758293D01*
X13806729Y-11758293D02*
X13806729Y-11710674D01*
X13806729Y-11710674D02*
X13816253Y-11672579D01*
X13816253Y-11672579D02*
X13825777Y-11653531D01*
X13825777Y-11653531D02*
X13835301Y-11644008D01*
X13835301Y-11644008D02*
X13854348Y-11634484D01*
X13987682Y-11634484D02*
X14111491Y-11634484D01*
X14111491Y-11634484D02*
X14044825Y-11710674D01*
X14044825Y-11710674D02*
X14073396Y-11710674D01*
X14073396Y-11710674D02*
X14092444Y-11720198D01*
X14092444Y-11720198D02*
X14101967Y-11729722D01*
X14101967Y-11729722D02*
X14111491Y-11748769D01*
X14111491Y-11748769D02*
X14111491Y-11796388D01*
X14111491Y-11796388D02*
X14101967Y-11815436D01*
X14101967Y-11815436D02*
X14092444Y-11824960D01*
X14092444Y-11824960D02*
X14073396Y-11834484D01*
X14073396Y-11834484D02*
X14016253Y-11834484D01*
X14016253Y-11834484D02*
X13997206Y-11824960D01*
X13997206Y-11824960D02*
X13987682Y-11815436D01*
X14206729Y-11834484D02*
X14244825Y-11834484D01*
X14244825Y-11834484D02*
X14263872Y-11824960D01*
X14263872Y-11824960D02*
X14273396Y-11815436D01*
X14273396Y-11815436D02*
X14292444Y-11786865D01*
X14292444Y-11786865D02*
X14301967Y-11748769D01*
X14301967Y-11748769D02*
X14301967Y-11672579D01*
X14301967Y-11672579D02*
X14292444Y-11653531D01*
X14292444Y-11653531D02*
X14282920Y-11644008D01*
X14282920Y-11644008D02*
X14263872Y-11634484D01*
X14263872Y-11634484D02*
X14225777Y-11634484D01*
X14225777Y-11634484D02*
X14206729Y-11644008D01*
X14206729Y-11644008D02*
X14197206Y-11653531D01*
X14197206Y-11653531D02*
X14187682Y-11672579D01*
X14187682Y-11672579D02*
X14187682Y-11720198D01*
X14187682Y-11720198D02*
X14197206Y-11739246D01*
X14197206Y-11739246D02*
X14206729Y-11748769D01*
X14206729Y-11748769D02*
X14225777Y-11758293D01*
X14225777Y-11758293D02*
X14263872Y-11758293D01*
X14263872Y-11758293D02*
X14282920Y-11748769D01*
X14282920Y-11748769D02*
X14292444Y-11739246D01*
X14292444Y-11739246D02*
X14301967Y-11720198D01*
X14473396Y-11701150D02*
X14473396Y-11834484D01*
X14425777Y-11624960D02*
X14378158Y-11767817D01*
X14378158Y-11767817D02*
X14501967Y-11767817D01*
X14568634Y-11634484D02*
X14568634Y-11672579D01*
X14644825Y-11634484D02*
X14644825Y-11672579D01*
X14940063Y-11910674D02*
X14930539Y-11901150D01*
X14930539Y-11901150D02*
X14911491Y-11872579D01*
X14911491Y-11872579D02*
X14901968Y-11853531D01*
X14901968Y-11853531D02*
X14892444Y-11824960D01*
X14892444Y-11824960D02*
X14882920Y-11777341D01*
X14882920Y-11777341D02*
X14882920Y-11739246D01*
X14882920Y-11739246D02*
X14892444Y-11691627D01*
X14892444Y-11691627D02*
X14901968Y-11663055D01*
X14901968Y-11663055D02*
X14911491Y-11644008D01*
X14911491Y-11644008D02*
X14930539Y-11615436D01*
X14930539Y-11615436D02*
X14940063Y-11605912D01*
X15121015Y-11834484D02*
X15006729Y-11834484D01*
X15063872Y-11834484D02*
X15063872Y-11634484D01*
X15063872Y-11634484D02*
X15044825Y-11663055D01*
X15044825Y-11663055D02*
X15025777Y-11682103D01*
X15025777Y-11682103D02*
X15006729Y-11691627D01*
X15244825Y-11634484D02*
X15263872Y-11634484D01*
X15263872Y-11634484D02*
X15282920Y-11644008D01*
X15282920Y-11644008D02*
X15292444Y-11653531D01*
X15292444Y-11653531D02*
X15301968Y-11672579D01*
X15301968Y-11672579D02*
X15311491Y-11710674D01*
X15311491Y-11710674D02*
X15311491Y-11758293D01*
X15311491Y-11758293D02*
X15301968Y-11796388D01*
X15301968Y-11796388D02*
X15292444Y-11815436D01*
X15292444Y-11815436D02*
X15282920Y-11824960D01*
X15282920Y-11824960D02*
X15263872Y-11834484D01*
X15263872Y-11834484D02*
X15244825Y-11834484D01*
X15244825Y-11834484D02*
X15225777Y-11824960D01*
X15225777Y-11824960D02*
X15216253Y-11815436D01*
X15216253Y-11815436D02*
X15206729Y-11796388D01*
X15206729Y-11796388D02*
X15197206Y-11758293D01*
X15197206Y-11758293D02*
X15197206Y-11710674D01*
X15197206Y-11710674D02*
X15206729Y-11672579D01*
X15206729Y-11672579D02*
X15216253Y-11653531D01*
X15216253Y-11653531D02*
X15225777Y-11644008D01*
X15225777Y-11644008D02*
X15244825Y-11634484D01*
X15549587Y-11834484D02*
X15549587Y-11634484D01*
X15635301Y-11834484D02*
X15635301Y-11729722D01*
X15635301Y-11729722D02*
X15625777Y-11710674D01*
X15625777Y-11710674D02*
X15606730Y-11701150D01*
X15606730Y-11701150D02*
X15578158Y-11701150D01*
X15578158Y-11701150D02*
X15559110Y-11710674D01*
X15559110Y-11710674D02*
X15549587Y-11720198D01*
X15759110Y-11834484D02*
X15740063Y-11824960D01*
X15740063Y-11824960D02*
X15730539Y-11815436D01*
X15730539Y-11815436D02*
X15721015Y-11796388D01*
X15721015Y-11796388D02*
X15721015Y-11739246D01*
X15721015Y-11739246D02*
X15730539Y-11720198D01*
X15730539Y-11720198D02*
X15740063Y-11710674D01*
X15740063Y-11710674D02*
X15759110Y-11701150D01*
X15759110Y-11701150D02*
X15787682Y-11701150D01*
X15787682Y-11701150D02*
X15806730Y-11710674D01*
X15806730Y-11710674D02*
X15816253Y-11720198D01*
X15816253Y-11720198D02*
X15825777Y-11739246D01*
X15825777Y-11739246D02*
X15825777Y-11796388D01*
X15825777Y-11796388D02*
X15816253Y-11815436D01*
X15816253Y-11815436D02*
X15806730Y-11824960D01*
X15806730Y-11824960D02*
X15787682Y-11834484D01*
X15787682Y-11834484D02*
X15759110Y-11834484D01*
X15940063Y-11834484D02*
X15921015Y-11824960D01*
X15921015Y-11824960D02*
X15911491Y-11805912D01*
X15911491Y-11805912D02*
X15911491Y-11634484D01*
X16092444Y-11824960D02*
X16073396Y-11834484D01*
X16073396Y-11834484D02*
X16035301Y-11834484D01*
X16035301Y-11834484D02*
X16016253Y-11824960D01*
X16016253Y-11824960D02*
X16006730Y-11805912D01*
X16006730Y-11805912D02*
X16006730Y-11729722D01*
X16006730Y-11729722D02*
X16016253Y-11710674D01*
X16016253Y-11710674D02*
X16035301Y-11701150D01*
X16035301Y-11701150D02*
X16073396Y-11701150D01*
X16073396Y-11701150D02*
X16092444Y-11710674D01*
X16092444Y-11710674D02*
X16101968Y-11729722D01*
X16101968Y-11729722D02*
X16101968Y-11748769D01*
X16101968Y-11748769D02*
X16006730Y-11767817D01*
X16178158Y-11824960D02*
X16197206Y-11834484D01*
X16197206Y-11834484D02*
X16235301Y-11834484D01*
X16235301Y-11834484D02*
X16254349Y-11824960D01*
X16254349Y-11824960D02*
X16263872Y-11805912D01*
X16263872Y-11805912D02*
X16263872Y-11796388D01*
X16263872Y-11796388D02*
X16254349Y-11777341D01*
X16254349Y-11777341D02*
X16235301Y-11767817D01*
X16235301Y-11767817D02*
X16206730Y-11767817D01*
X16206730Y-11767817D02*
X16187682Y-11758293D01*
X16187682Y-11758293D02*
X16178158Y-11739246D01*
X16178158Y-11739246D02*
X16178158Y-11729722D01*
X16178158Y-11729722D02*
X16187682Y-11710674D01*
X16187682Y-11710674D02*
X16206730Y-11701150D01*
X16206730Y-11701150D02*
X16235301Y-11701150D01*
X16235301Y-11701150D02*
X16254349Y-11710674D01*
X16330539Y-11910674D02*
X16340063Y-11901150D01*
X16340063Y-11901150D02*
X16359111Y-11872579D01*
X16359111Y-11872579D02*
X16368634Y-11853531D01*
X16368634Y-11853531D02*
X16378158Y-11824960D01*
X16378158Y-11824960D02*
X16387682Y-11777341D01*
X16387682Y-11777341D02*
X16387682Y-11739246D01*
X16387682Y-11739246D02*
X16378158Y-11691627D01*
X16378158Y-11691627D02*
X16368634Y-11663055D01*
X16368634Y-11663055D02*
X16359111Y-11644008D01*
X16359111Y-11644008D02*
X16340063Y-11615436D01*
X16340063Y-11615436D02*
X16330539Y-11605912D01*
M02*
