M48
; DRILL file KiCad 10.0.6 date 2026-09-30T16:45:46
; FORMAT={-:-/ absolute / metric / decimal}
; #@! TF.CreationDate,2026-09-30T16:45:46+05:30
; #@! TF.GenerationSoftware,Kicad,Pcbnew,10.0.6
; #@! TF.FileFunction,MixedPlating,1,2
FMAT,2
METRIC
; #@! TA.AperFunction,Plated,PTH,ViaDrill
T1C0.400
; #@! TA.AperFunction,Plated,PTH,ComponentDrill
T2C0.800
; #@! TA.AperFunction,Plated,PTH,ComponentDrill
T3C1.000
%
G90
G05
T1
X118.4Y-90.6
X118.5Y-83.9
X118.9Y-91.4
X119.0Y-83.3
X120.7Y-83.6
X120.7Y-88.7
X120.7Y-90.8
X120.8Y-85.9
X126.4Y-97.925
X126.5Y-104.3
X128.8Y-98.025
X128.8Y-100.1
X128.8Y-104.225
X131.7Y-104.3
X132.325Y-99.7
X132.325Y-100.495
X132.5Y-104.3
X135.8Y-87.8
X135.8Y-88.5
X135.8Y-91.5
X135.8Y-92.2
X136.5Y-98.5
X136.75Y-101.765
X137.25Y-98.5
X137.75Y-101.75
X142.5Y-87.0
X142.5Y-96.5
X144.1Y-90.1
X144.1Y-94.0
X144.1Y-94.75
X144.112Y-88.9
X149.7Y-80.7
X149.7Y-87.7
X149.7Y-94.4
X149.7Y-102.2
X150.2Y-83.8
X150.2Y-99.4
X150.7Y-80.7
X150.7Y-87.7
X150.7Y-94.4
X150.7Y-102.2
T2
X126.2Y-84.5
X126.2Y-89.2
X126.2Y-94.1
X126.3Y-79.6
X131.2Y-84.5
X131.2Y-89.2
X131.2Y-94.1
X131.3Y-79.6
X140.8Y-79.5
X140.9Y-99.3
X140.9Y-103.4
X141.0Y-84.2
X145.8Y-79.5
X145.9Y-99.3
X145.9Y-103.4
X146.0Y-84.2
T3
X115.4Y-84.56
X115.4Y-87.1
X115.4Y-89.64
X120.6Y-99.66
X120.6Y-102.2
X158.6Y-86.52
X158.6Y-89.06
X158.6Y-91.6
X158.6Y-94.14
X158.6Y-96.68
M30
